<?xml version="1.0" encoding="UTF-8"?>
<svg version="1.1" xmlns="http://www.w3.org/2000/svg" width="921" height="1518">
<path d="M0 0 C3.49586787 0.63554988 5.24166035 1.8233202 7.609375 4.45166016 C8.95101943 6.41848323 10.23781734 8.42323792 11.484375 10.45166016 C12.39043791 11.67220198 13.3120641 12.88129123 14.24609375 14.08056641 C26.06362269 29.2836985 36.83557134 45.29389331 47.484375 61.32666016 C48.00961761 62.11657349 48.53486023 62.90648682 49.07601929 63.72033691 C63.18919013 84.95449837 76.4355216 106.5952417 89.37060547 128.56195068 C91.03005384 131.37750203 92.69544142 134.18953902 94.359375 137.00244141 C101.84632553 149.70256585 108.96985279 162.56948385 115.93164062 175.56396484 C117.90332776 179.2308069 119.89977149 182.88374849 121.89941406 186.53540039 C126.75480993 195.4025874 131.58000883 204.28639999 136.37408447 213.18688965 C137.32479516 214.95003011 138.27927071 216.7111389 139.23388672 218.47216797 C141.01401858 221.78397401 142.7583752 225.11135017 144.484375 228.45166016 C145.06324463 229.55493652 145.64211426 230.65821289 146.23852539 231.79492188 C149.76191071 238.86883161 151.42344662 244.55348126 151.171875 252.45166016 C151.19411133 253.80324219 151.19411133 253.80324219 151.21679688 255.18212891 C151.16041441 259.6728262 151.02677008 261.77593384 148.1484375 265.36181641 C147.26929688 266.05146484 146.39015625 266.74111328 145.484375 267.45166016 C144.91074219 268.04849609 144.33710937 268.64533203 143.74609375 269.26025391 C136.25440347 277.01220142 131.34343483 280.80849875 120.484375 281.45166016 C119.3487915 281.52868164 118.21320801 281.60570312 117.04321289 281.68505859 C100.44080933 282.64852769 88.22325385 282.78403238 74.38037109 272.66992188 C67.29258745 268.11570602 57.77846061 265.92611326 49.484375 266.45166016 C33.76496222 269.91854434 18.57647532 278.96186147 9.44921875 292.26416016 C3.18605981 302.42467247 -1.47037188 313.25132227 -5.55078125 324.44946289 C-10.90301693 338.6125007 -20.91623679 345.74468781 -33.79541016 352.68505859 C-39.9361259 356.03038336 -45.3364038 359.72658709 -50.515625 364.45166016 C-51.2065625 365.05107422 -51.8975 365.65048828 -52.609375 366.26806641 C-64.27688313 377.01563639 -73.84151743 395.04881563 -74.6484375 411.09228516 C-73.32009065 437.19039382 -56.55226609 459.87295423 -38.15966797 476.97607422 C-30.50285986 483.8483267 -21.97596753 489.52473028 -13.46875 495.27197266 C-7.2847509 499.5018757 -1.64640542 504.23374979 3.98925781 509.15820312 C7.22745368 511.95963384 10.56228189 514.64446877 13.88671875 517.34228516 C15.55419159 518.69632325 17.21381159 520.06012286 18.86328125 521.43603516 C30.56936001 531.07860415 44.1560836 541.69047567 59.546875 543.88916016 C69.81230267 542.74855708 78.27274899 535.41090757 84.546875 527.63916016 C89.73246535 520.60219998 93.70710288 512.92851974 97.70336914 505.16918945 C106.93682116 487.46468054 118.80523694 477.42229851 136.84765625 469.52197266 C150.74483418 463.40153386 160.00034304 456.06582885 167.484375 442.45166016 C168.01804687 441.53900391 168.55171875 440.62634766 169.1015625 439.68603516 C173.70129505 431.31040276 175.53571848 422.70364512 177.484375 413.45166016 C179.63264597 403.67102274 183.60410409 394.76223489 187.56689453 385.60839844 C189.04480652 382.13424344 190.38462307 378.60893406 191.6953125 375.06884766 C192.484375 373.45166016 192.484375 373.45166016 194.484375 372.45166016 C197.60255219 372.16234886 200.72931795 372.17388712 203.859375 372.13916016 C204.72304688 372.11015625 205.58671875 372.08115234 206.4765625 372.05126953 C207.311875 372.04289062 208.1471875 372.03451172 209.0078125 372.02587891 C210.1512915 372.00400513 210.1512915 372.00400513 211.31787109 371.98168945 C214.3602754 372.64166559 215.42894921 374.14262002 217.484375 376.45166016 C218.94090271 378.87023926 218.94090271 378.87023926 220.30249023 381.60205078 C220.82080917 382.6325354 221.33912811 383.66302002 221.87315369 384.72473145 C222.42419266 385.84118042 222.97523163 386.95762939 223.54296875 388.10791016 C224.12796646 389.27882202 224.71296417 390.44973389 225.31568909 391.65612793 C226.56040263 394.14868473 227.79971049 396.64382951 229.03491211 399.14111328 C230.57313166 402.25069639 232.12122773 405.35521172 233.67315578 408.45797157 C242.26587293 425.64488135 250.48388596 442.98073267 258.484375 460.45166016 C259.21539313 462.03996056 259.94657258 463.62818674 260.67797852 465.21630859 C277.92547409 502.77271724 293.38863006 541.25049216 306.484375 580.45166016 C306.73276123 581.1914209 306.98114746 581.93118164 307.23706055 582.69335938 C320.62114327 622.55528951 331.87154478 662.88553742 337.921875 704.57666016 C338.06141602 705.53644775 338.20095703 706.49623535 338.34472656 707.48510742 C338.78428487 710.80321621 339.14483112 714.12168833 339.484375 717.45166016 C339.56837555 718.25952972 339.6523761 719.06739929 339.73892212 719.89974976 C341.49310912 737.29138369 341.82970559 754.61177109 341.80004883 772.07202148 C341.79540392 775.03539147 341.80241272 777.99835229 341.82055664 780.96166992 C341.95595037 803.32108963 341.32316385 825.40038335 335.734375 847.20166016 C335.47833496 848.22839844 335.22229492 849.25513672 334.95849609 850.31298828 C332.4062854 860.2510721 329.28626041 869.92252338 325.484375 879.45166016 C325.19369141 880.18288086 324.90300781 880.91410156 324.60351562 881.66748047 C319.96648423 893.02462469 313.5109109 902.48668771 306.13818359 912.23730469 C303.52794577 915.73226439 301.04201128 919.31163026 298.546875 922.88916016 C287.63232123 938.41613287 276.21023073 953.53071019 264.484375 968.45166016 C263.46982461 969.74705495 262.45549238 971.04262064 261.44140625 972.33837891 C250.19998862 986.69001743 238.75909175 1000.86319502 226.93896484 1014.74267578 C225.95898198 1015.89404874 224.98016355 1017.0464137 224.00244141 1018.19970703 C217.82199537 1025.48977371 211.543672 1032.6604933 205.046875 1039.67041016 C202.76070757 1042.15173823 200.52564382 1044.66896832 198.296875 1047.20166016 C194.91488348 1050.99653394 191.35542487 1054.54881179 187.71142578 1058.08740234 C166.85780635 1078.442085 153.0202618 1104.42837974 138.484375 1129.45166016 C137.98873047 1130.30260254 137.49308594 1131.15354492 136.98242188 1132.03027344 C118.80704805 1163.29838197 102.34838762 1195.53608431 86.17944336 1227.8762207 C84.42280973 1231.38729186 82.65975824 1234.8950919 80.89648438 1238.40283203 C73.78529313 1252.59104211 66.96385336 1266.88408049 60.32641602 1281.29760742 C57.13486039 1288.22740732 53.83497281 1295.09756132 50.484375 1301.95166016 C45.30834218 1312.60550992 40.27152665 1323.31772981 35.30859375 1334.07275391 C31.09681507 1343.18123644 26.76019204 1352.22479152 22.38330078 1361.25488281 C17.6790643 1370.98517188 13.12503951 1380.7817087 8.62109375 1390.60595703 C8.10804688 1391.72035156 7.595 1392.83474609 7.06640625 1393.98291016 C6.61499268 1394.96839844 6.1635791 1395.95388672 5.69848633 1396.96923828 C4.484375 1399.45166016 4.484375 1399.45166016 2.484375 1402.45166016 C0.23779297 1402.79223633 0.23779297 1402.79223633 -2.5234375 1402.74462891 C-3.50957031 1402.73496094 -4.49570312 1402.72529297 -5.51171875 1402.71533203 C-6.54425781 1402.69019531 -7.57679688 1402.66505859 -8.640625 1402.63916016 C-9.68089844 1402.625625 -10.72117187 1402.61208984 -11.79296875 1402.59814453 C-14.36770127 1402.56271243 -16.9414083 1402.51331236 -19.515625 1402.45166016 C-30.2050671 1381.3801401 -40.43161124 1360.07183933 -50.33227539 1338.61962891 C-55.83888167 1326.70667105 -61.47048359 1314.85389474 -67.11572266 1303.00610352 C-67.94696576 1301.26140545 -68.77818315 1299.51669514 -69.609375 1297.77197266 C-70.02295258 1296.90397537 -70.43653015 1296.03597809 -70.86264038 1295.14167786 C-73.52750401 1289.54337031 -76.1690642 1283.93462626 -78.796875 1278.31884766 C-88.68096908 1257.2358865 -98.95614611 1236.35535841 -109.35674286 1215.52355194 C-110.43645724 1213.36005842 -111.51479639 1211.19588438 -112.59283447 1209.03155518 C-120.54262361 1193.07888083 -128.62409573 1177.23722067 -137.2906189 1161.65789795 C-139.00215057 1158.57542688 -140.68565337 1155.47815817 -142.37109375 1152.38134766 C-150.65733206 1137.28006645 -159.37462686 1122.49293911 -168.42675781 1107.83984375 C-170.47610664 1104.51575971 -172.50865111 1101.18186726 -174.5390625 1097.84619141 C-185.62768295 1079.71890131 -197.43362092 1065.18629299 -212.625 1050.33447266 C-216.26092061 1046.75620407 -219.69869715 1043.08343004 -223.01367188 1039.20751953 C-225.07791376 1036.79431608 -227.23594062 1034.47158786 -229.390625 1032.13916016 C-233.43641244 1027.7040037 -237.26246446 1023.14207987 -241.03125 1018.47119141 C-243.98176675 1014.88510736 -247.02396295 1011.38692887 -250.078125 1007.88916016 C-255.04399209 1002.18982021 -259.85939718 996.40835785 -264.515625 990.45166016 C-265.32 989.43201172 -266.124375 988.41236328 -266.953125 987.36181641 C-269.81603735 983.73192958 -272.66682849 980.0926306 -275.515625 976.45166016 C-276.06557129 975.74944336 -276.61551758 975.04722656 -277.18212891 974.32373047 C-288.82841248 959.44255094 -300.1911819 944.3860409 -311.21484375 929.03759766 C-313.43305639 925.9493813 -315.66544006 922.87222596 -317.91015625 919.80322266 C-349.39481142 876.70145409 -359.13175611 831.43758446 -358.90673828 778.56298828 C-358.88970511 774.52511386 -358.89977833 770.48783545 -358.91706181 766.44998169 C-358.98791609 746.91041256 -358.17666752 727.84304489 -355.515625 708.45166016 C-355.36226685 707.29543152 -355.36226685 707.29543152 -355.20581055 706.11584473 C-354.66068706 702.04573395 -354.02791202 697.99785277 -353.328125 693.95166016 C-353.11873291 692.73196533 -352.90934082 691.51227051 -352.69360352 690.25561523 C-340.16285558 619.39376726 -315.2255044 551.22802961 -286.515625 485.45166016 C-286.24854736 484.83971802 -285.98146973 484.22777588 -285.70629883 483.59729004 C-281.73238327 474.50785915 -277.65831568 465.4652241 -273.515625 456.45166016 C-273.22079224 455.8097876 -272.92595947 455.16791504 -272.62219238 454.5065918 C-263.16209285 433.94226117 -253.19890719 413.63557345 -243.078125 393.38916016 C-242.2527977 391.73701004 -242.2527977 391.73701004 -241.41079712 390.05148315 C-235.70330466 378.63767067 -229.92839274 367.26878522 -223.95077515 355.99398804 C-220.51637568 349.49883478 -217.24687791 342.93464699 -214.06665039 336.31176758 C-213.21585725 334.54066497 -212.35894984 332.77250371 -211.50195312 331.00439453 C-208.52144995 324.83570746 -205.59729513 318.64386601 -202.73901367 312.41748047 C-194.70887878 294.94082995 -186.29024553 277.68632566 -177.66772461 260.49511719 C-175.81479618 256.80070888 -173.96921782 253.10268284 -172.12545776 249.40369225 C-164.28937297 233.69032501 -156.29285904 218.11024505 -147.77920532 202.75006104 C-145.84858238 199.23833694 -143.97849176 195.69580306 -142.1171875 192.14697266 C-141.78637177 191.5172052 -141.45555603 190.88743774 -141.11471558 190.23858643 C-140.45801343 188.98825671 -139.80145751 187.73785018 -139.14505005 186.48736572 C-132.60859244 174.05314184 -125.79218963 161.84521661 -118.6328125 149.75634766 C-115.89126456 145.12202311 -113.27760073 140.43016662 -110.703125 135.70166016 C-103.7573815 123.02483374 -96.09271243 110.75715059 -88.515625 98.45166016 C-88.00338379 97.61618652 -87.49114258 96.78071289 -86.96337891 95.91992188 C-79.72448489 84.14151406 -72.04688925 72.64838097 -64.390625 61.13916016 C-63.62321487 59.98395874 -63.62321487 59.98395874 -62.84030151 58.80541992 C-51.69973448 42.05045738 -40.03495583 25.745377 -27.640625 9.88916016 C-27.17599854 9.29296875 -26.71137207 8.69677734 -26.23266602 8.08251953 C-18.73965132 -1.44930812 -11.86408611 -1.05958283 0 0 Z " fill="#2CAE32" transform="translate(483.515625,80.54833984375)"/>
<path d="M0 0 C3.49586787 0.63554988 5.24166035 1.8233202 7.609375 4.45166016 C8.95101943 6.41848323 10.23781734 8.42323792 11.484375 10.45166016 C12.39043791 11.67220198 13.3120641 12.88129123 14.24609375 14.08056641 C26.06362269 29.2836985 36.83557134 45.29389331 47.484375 61.32666016 C48.00961761 62.11657349 48.53486023 62.90648682 49.07601929 63.72033691 C63.18919013 84.95449837 76.4355216 106.5952417 89.37060547 128.56195068 C91.03005384 131.37750203 92.69544142 134.18953902 94.359375 137.00244141 C101.84632553 149.70256585 108.96985279 162.56948385 115.93164062 175.56396484 C117.90332776 179.2308069 119.89977149 182.88374849 121.89941406 186.53540039 C126.75480993 195.4025874 131.58000883 204.28639999 136.37408447 213.18688965 C137.32479516 214.95003011 138.27927071 216.7111389 139.23388672 218.47216797 C141.01401858 221.78397401 142.7583752 225.11135017 144.484375 228.45166016 C145.06324463 229.55493652 145.64211426 230.65821289 146.23852539 231.79492188 C149.76191071 238.86883161 151.42344662 244.55348126 151.171875 252.45166016 C151.19411133 253.80324219 151.19411133 253.80324219 151.21679688 255.18212891 C151.16041441 259.6728262 151.02677008 261.77593384 148.1484375 265.36181641 C147.26929688 266.05146484 146.39015625 266.74111328 145.484375 267.45166016 C144.91074219 268.04849609 144.33710937 268.64533203 143.74609375 269.26025391 C136.25440347 277.01220142 131.34343483 280.80849875 120.484375 281.45166016 C119.3487915 281.52868164 118.21320801 281.60570312 117.04321289 281.68505859 C100.44080933 282.64852769 88.22325385 282.78403238 74.38037109 272.66992188 C67.29258745 268.11570602 57.77846061 265.92611326 49.484375 266.45166016 C33.76496222 269.91854434 18.57647532 278.96186147 9.44921875 292.26416016 C3.18605981 302.42467247 -1.47037188 313.25132227 -5.55078125 324.44946289 C-10.90301693 338.6125007 -20.91623679 345.74468781 -33.79541016 352.68505859 C-39.9361259 356.03038336 -45.3364038 359.72658709 -50.515625 364.45166016 C-51.2065625 365.05107422 -51.8975 365.65048828 -52.609375 366.26806641 C-64.27688313 377.01563639 -73.84151743 395.04881563 -74.6484375 411.09228516 C-73.32009065 437.19039382 -56.55226609 459.87295423 -38.15966797 476.97607422 C-30.50285986 483.8483267 -21.97596753 489.52473028 -13.46875 495.27197266 C-7.2847509 499.5018757 -1.64640542 504.23374979 3.98925781 509.15820312 C7.22745368 511.95963384 10.56228189 514.64446877 13.88671875 517.34228516 C15.55419159 518.69632325 17.21381159 520.06012286 18.86328125 521.43603516 C30.56936001 531.07860415 44.1560836 541.69047567 59.546875 543.88916016 C69.81230267 542.74855708 78.27274899 535.41090757 84.546875 527.63916016 C89.73246535 520.60219998 93.70710288 512.92851974 97.70336914 505.16918945 C106.93682116 487.46468054 118.80523694 477.42229851 136.84765625 469.52197266 C150.74483418 463.40153386 160.00034304 456.06582885 167.484375 442.45166016 C168.01804687 441.53900391 168.55171875 440.62634766 169.1015625 439.68603516 C173.70129505 431.31040276 175.53571848 422.70364512 177.484375 413.45166016 C179.63264597 403.67102274 183.60410409 394.76223489 187.56689453 385.60839844 C189.04480652 382.13424344 190.38462307 378.60893406 191.6953125 375.06884766 C192.484375 373.45166016 192.484375 373.45166016 194.484375 372.45166016 C197.60255219 372.16234886 200.72931795 372.17388712 203.859375 372.13916016 C204.72304688 372.11015625 205.58671875 372.08115234 206.4765625 372.05126953 C207.311875 372.04289062 208.1471875 372.03451172 209.0078125 372.02587891 C210.1512915 372.00400513 210.1512915 372.00400513 211.31787109 371.98168945 C214.3602754 372.64166559 215.42894921 374.14262002 217.484375 376.45166016 C218.94090271 378.87023926 218.94090271 378.87023926 220.30249023 381.60205078 C220.82080917 382.6325354 221.33912811 383.66302002 221.87315369 384.72473145 C222.42419266 385.84118042 222.97523163 386.95762939 223.54296875 388.10791016 C224.12796646 389.27882202 224.71296417 390.44973389 225.31568909 391.65612793 C226.56040263 394.14868473 227.79971049 396.64382951 229.03491211 399.14111328 C230.57313166 402.25069639 232.12122773 405.35521172 233.67315578 408.45797157 C242.26587293 425.64488135 250.48388596 442.98073267 258.484375 460.45166016 C259.21539313 462.03996056 259.94657258 463.62818674 260.67797852 465.21630859 C277.92547409 502.77271724 293.38863006 541.25049216 306.484375 580.45166016 C306.73276123 581.1914209 306.98114746 581.93118164 307.23706055 582.69335938 C320.62114327 622.55528951 331.87154478 662.88553742 337.921875 704.57666016 C338.06141602 705.53644775 338.20095703 706.49623535 338.34472656 707.48510742 C338.78428487 710.80321621 339.14483112 714.12168833 339.484375 717.45166016 C339.56837555 718.25952972 339.6523761 719.06739929 339.73892212 719.89974976 C341.49310912 737.29138369 341.82970559 754.61177109 341.80004883 772.07202148 C341.79540392 775.03539147 341.80241272 777.99835229 341.82055664 780.96166992 C341.95595037 803.32108963 341.32316385 825.40038335 335.734375 847.20166016 C335.47833496 848.22839844 335.22229492 849.25513672 334.95849609 850.31298828 C332.4062854 860.2510721 329.28626041 869.92252338 325.484375 879.45166016 C325.19369141 880.18288086 324.90300781 880.91410156 324.60351562 881.66748047 C319.96648423 893.02462469 313.5109109 902.48668771 306.13818359 912.23730469 C303.52794577 915.73226439 301.04201128 919.31163026 298.546875 922.88916016 C287.63232123 938.41613287 276.21023073 953.53071019 264.484375 968.45166016 C263.46982461 969.74705495 262.45549238 971.04262064 261.44140625 972.33837891 C250.19998862 986.69001743 238.75909175 1000.86319502 226.93896484 1014.74267578 C225.95898198 1015.89404874 224.98016355 1017.0464137 224.00244141 1018.19970703 C217.82199537 1025.48977371 211.543672 1032.6604933 205.046875 1039.67041016 C202.76070757 1042.15173823 200.52564382 1044.66896832 198.296875 1047.20166016 C194.91488348 1050.99653394 191.35542487 1054.54881179 187.71142578 1058.08740234 C166.85780635 1078.442085 153.0202618 1104.42837974 138.484375 1129.45166016 C137.98873047 1130.30260254 137.49308594 1131.15354492 136.98242188 1132.03027344 C118.80704805 1163.29838197 102.34838762 1195.53608431 86.17944336 1227.8762207 C84.42280973 1231.38729186 82.65975824 1234.8950919 80.89648438 1238.40283203 C73.78529313 1252.59104211 66.96385336 1266.88408049 60.32641602 1281.29760742 C57.13486039 1288.22740732 53.83497281 1295.09756132 50.484375 1301.95166016 C45.30834218 1312.60550992 40.27152665 1323.31772981 35.30859375 1334.07275391 C31.09681507 1343.18123644 26.76019204 1352.22479152 22.38330078 1361.25488281 C17.6790643 1370.98517188 13.12503951 1380.7817087 8.62109375 1390.60595703 C8.10804688 1391.72035156 7.595 1392.83474609 7.06640625 1393.98291016 C6.61499268 1394.96839844 6.1635791 1395.95388672 5.69848633 1396.96923828 C4.484375 1399.45166016 4.484375 1399.45166016 2.484375 1402.45166016 C0.23779297 1402.79223633 0.23779297 1402.79223633 -2.5234375 1402.74462891 C-3.50957031 1402.73496094 -4.49570312 1402.72529297 -5.51171875 1402.71533203 C-6.54425781 1402.69019531 -7.57679688 1402.66505859 -8.640625 1402.63916016 C-9.68089844 1402.625625 -10.72117187 1402.61208984 -11.79296875 1402.59814453 C-14.36770127 1402.56271243 -16.9414083 1402.51331236 -19.515625 1402.45166016 C-30.2050671 1381.3801401 -40.43161124 1360.07183933 -50.33227539 1338.61962891 C-55.83888167 1326.70667105 -61.47048359 1314.85389474 -67.11572266 1303.00610352 C-67.94696576 1301.26140545 -68.77818315 1299.51669514 -69.609375 1297.77197266 C-70.02295258 1296.90397537 -70.43653015 1296.03597809 -70.86264038 1295.14167786 C-73.52750401 1289.54337031 -76.1690642 1283.93462626 -78.796875 1278.31884766 C-88.68096908 1257.2358865 -98.95614611 1236.35535841 -109.35674286 1215.52355194 C-110.43645724 1213.36005842 -111.51479639 1211.19588438 -112.59283447 1209.03155518 C-120.54262361 1193.07888083 -128.62409573 1177.23722067 -137.2906189 1161.65789795 C-139.00215057 1158.57542688 -140.68565337 1155.47815817 -142.37109375 1152.38134766 C-150.65733206 1137.28006645 -159.37462686 1122.49293911 -168.42675781 1107.83984375 C-170.47610664 1104.51575971 -172.50865111 1101.18186726 -174.5390625 1097.84619141 C-185.62768295 1079.71890131 -197.43362092 1065.18629299 -212.625 1050.33447266 C-216.26092061 1046.75620407 -219.69869715 1043.08343004 -223.01367188 1039.20751953 C-225.07791376 1036.79431608 -227.23594062 1034.47158786 -229.390625 1032.13916016 C-233.43641244 1027.7040037 -237.26246446 1023.14207987 -241.03125 1018.47119141 C-243.98176675 1014.88510736 -247.02396295 1011.38692887 -250.078125 1007.88916016 C-255.04399209 1002.18982021 -259.85939718 996.40835785 -264.515625 990.45166016 C-265.32 989.43201172 -266.124375 988.41236328 -266.953125 987.36181641 C-269.81603735 983.73192958 -272.66682849 980.0926306 -275.515625 976.45166016 C-276.06557129 975.74944336 -276.61551758 975.04722656 -277.18212891 974.32373047 C-288.82841248 959.44255094 -300.1911819 944.3860409 -311.21484375 929.03759766 C-313.43305639 925.9493813 -315.66544006 922.87222596 -317.91015625 919.80322266 C-349.39481142 876.70145409 -359.13175611 831.43758446 -358.90673828 778.56298828 C-358.88970511 774.52511386 -358.89977833 770.48783545 -358.91706181 766.44998169 C-358.98791609 746.91041256 -358.17666752 727.84304489 -355.515625 708.45166016 C-355.36226685 707.29543152 -355.36226685 707.29543152 -355.20581055 706.11584473 C-354.66068706 702.04573395 -354.02791202 697.99785277 -353.328125 693.95166016 C-353.11873291 692.73196533 -352.90934082 691.51227051 -352.69360352 690.25561523 C-340.16285558 619.39376726 -315.2255044 551.22802961 -286.515625 485.45166016 C-286.24854736 484.83971802 -285.98146973 484.22777588 -285.70629883 483.59729004 C-281.73238327 474.50785915 -277.65831568 465.4652241 -273.515625 456.45166016 C-273.22079224 455.8097876 -272.92595947 455.16791504 -272.62219238 454.5065918 C-263.16209285 433.94226117 -253.19890719 413.63557345 -243.078125 393.38916016 C-242.2527977 391.73701004 -242.2527977 391.73701004 -241.41079712 390.05148315 C-235.70330466 378.63767067 -229.92839274 367.26878522 -223.95077515 355.99398804 C-220.51637568 349.49883478 -217.24687791 342.93464699 -214.06665039 336.31176758 C-213.21585725 334.54066497 -212.35894984 332.77250371 -211.50195312 331.00439453 C-208.52144995 324.83570746 -205.59729513 318.64386601 -202.73901367 312.41748047 C-194.70887878 294.94082995 -186.29024553 277.68632566 -177.66772461 260.49511719 C-175.81479618 256.80070888 -173.96921782 253.10268284 -172.12545776 249.40369225 C-164.28937297 233.69032501 -156.29285904 218.11024505 -147.77920532 202.75006104 C-145.84858238 199.23833694 -143.97849176 195.69580306 -142.1171875 192.14697266 C-141.78637177 191.5172052 -141.45555603 190.88743774 -141.11471558 190.23858643 C-140.45801343 188.98825671 -139.80145751 187.73785018 -139.14505005 186.48736572 C-132.60859244 174.05314184 -125.79218963 161.84521661 -118.6328125 149.75634766 C-115.89126456 145.12202311 -113.27760073 140.43016662 -110.703125 135.70166016 C-103.7573815 123.02483374 -96.09271243 110.75715059 -88.515625 98.45166016 C-88.00338379 97.61618652 -87.49114258 96.78071289 -86.96337891 95.91992188 C-79.72448489 84.14151406 -72.04688925 72.64838097 -64.390625 61.13916016 C-63.62321487 59.98395874 -63.62321487 59.98395874 -62.84030151 58.80541992 C-51.69973448 42.05045738 -40.03495583 25.745377 -27.640625 9.88916016 C-27.17599854 9.29296875 -26.71137207 8.69677734 -26.23266602 8.08251953 C-18.73965132 -1.44930812 -11.86408611 -1.05958283 0 0 Z M-9.515625 32.45166016 C-11.06632091 34.22785567 -12.48387646 36.00256613 -13.890625 37.88916016 C-14.30948975 38.44679047 -14.72835449 39.00442078 -15.15991211 39.57894897 C-25.06567506 52.84533873 -34.3558087 66.53891558 -43.515625 80.32666016 C-44.29850388 81.50305557 -44.29850388 81.50305557 -45.09719849 82.70321655 C-52.73462263 94.18307783 -60.31923263 105.68832648 -67.515625 117.45166016 C-67.86947266 118.02803223 -68.22332031 118.6044043 -68.58789062 119.19824219 C-71.27520158 123.58979413 -73.89934326 128.01752598 -76.515625 132.45166016 C-77.11503906 133.46486328 -77.71445312 134.47806641 -78.33203125 135.52197266 C-91.99778783 158.6405358 -105.19076086 182.00131812 -117.97949219 205.61767578 C-119.56277336 208.53864333 -121.15247786 211.45606206 -122.7421875 214.37353516 C-144.77857994 254.9285781 -165.94437749 296.17632131 -185.03027344 338.203125 C-186.64262617 341.72941781 -188.28323054 345.24199988 -189.9296875 348.75244141 C-190.49480264 349.96118181 -191.05974634 351.17000239 -191.62451172 352.37890625 C-192.68770684 354.65302399 -193.75422985 356.92559005 -194.82470703 359.19628906 C-195.29505371 360.20739746 -195.76540039 361.21850586 -196.25 362.26025391 C-196.87213379 363.58754517 -196.87213379 363.58754517 -197.50683594 364.94165039 C-198.51289342 367.4448636 -199.07798217 369.79509665 -199.515625 372.45166016 C-200.175625 372.45166016 -200.835625 372.45166016 -201.515625 372.45166016 C-203.0292222 375.19438417 -204.52403209 377.94691649 -206.015625 380.70166016 C-206.44488281 381.47896484 -206.87414062 382.25626953 -207.31640625 383.05712891 C-207.72246094 383.81123047 -208.12851562 384.56533203 -208.546875 385.34228516 C-208.92392578 386.03354492 -209.30097656 386.72480469 -209.68945312 387.43701172 C-210.7685707 389.70556553 -210.7685707 389.70556553 -210.515625 393.45166016 C-211.175625 393.45166016 -211.835625 393.45166016 -212.515625 393.45166016 C-215.9469684 400.26700772 -219.37338475 407.08481524 -222.79430676 413.90539932 C-224.38467381 417.0759054 -225.97643984 420.24568879 -227.57202148 423.41357422 C-236.56674565 441.27543518 -245.1915241 459.26688324 -253.515625 477.45166016 C-254.2101985 478.95879934 -254.90533693 480.46567844 -255.60131836 481.97216797 C-289.62673458 555.70563047 -319.38331825 633.37384061 -337.515625 752.45166016 C-337.61399658 753.94487793 -337.61399658 753.94487793 -337.71435547 755.46826172 C-339.85707073 790.23471606 -335.76430701 825.07069613 -322.515625 857.45166016 C-322.18433594 858.38623047 -321.85304688 859.32080078 -321.51171875 860.28369141 C-317.79611907 870.30621305 -311.61363478 878.76101267 -305.515625 887.45166016 C-305.08056641 888.07331055 -304.64550781 888.69496094 -304.19726562 889.33544922 C-300.24510626 894.96209264 -296.19697729 900.51813747 -292.14453125 906.07275391 C-291.56372803 906.87132812 -290.9829248 907.66990234 -290.38452148 908.49267578 C-289.25329485 910.04722158 -288.11887874 911.59945334 -286.98071289 913.14892578 C-284.60620756 916.41116856 -282.36265185 919.62080908 -280.4453125 923.17431641 C-278.46227534 926.54226819 -276.32462963 928.75915802 -273.515625 931.45166016 C-271.92003637 933.42536307 -270.35900565 935.42735517 -268.828125 937.45166016 C-267.94532764 938.61182793 -267.06251471 939.77198385 -266.1796875 940.93212891 C-265.29156851 942.10523169 -264.40354551 943.27840714 -263.515625 944.45166016 C-257.01079232 953.00898859 -250.34775045 961.4092103 -243.546875 969.73291016 C-241.13712701 972.68277407 -238.75591919 975.65346094 -236.390625 978.63916016 C-232.03525957 984.09703441 -227.51823281 989.41545079 -222.98632812 994.7265625 C-221.4981701 996.47213432 -220.01455306 998.22149331 -218.53125 999.97119141 C-212.8424805 1006.66451255 -207.04558598 1013.23191985 -201.07421875 1019.67431641 C-198.80921046 1022.13297426 -196.59688052 1024.62800944 -194.390625 1027.13916016 C-190.83727098 1031.12225194 -187.0912413 1034.86416585 -183.28222656 1038.59912109 C-171.90240983 1049.78281862 -163.36708518 1061.41243644 -155.17578125 1075.08447266 C-152.28969619 1079.87618742 -149.17842144 1084.48169464 -145.9765625 1089.06884766 C-144.61562953 1091.28855116 -144.1074606 1092.96148394 -143.515625 1095.45166016 C-142.855625 1095.78166016 -142.195625 1096.11166016 -141.515625 1096.45166016 C-141.18229167 1097.78499349 -140.84895833 1099.11832682 -140.515625 1100.45166016 C-139.855625 1100.78166016 -139.195625 1101.11166016 -138.515625 1101.45166016 C-137.890625 1103.51416016 -137.890625 1103.51416016 -137.515625 1105.45166016 C-136.855625 1105.45166016 -136.195625 1105.45166016 -135.515625 1105.45166016 C-135.2475 1106.13228516 -134.979375 1106.81291016 -134.703125 1107.51416016 C-133.35509194 1110.84876825 -131.94026202 1114.14909253 -130.515625 1117.45166016 C-129.855625 1117.45166016 -129.195625 1117.45166016 -128.515625 1117.45166016 C-127.855625 1119.76166016 -127.195625 1122.07166016 -126.515625 1124.45166016 C-125.855625 1124.45166016 -125.195625 1124.45166016 -124.515625 1124.45166016 C-123.525625 1127.42166016 -122.535625 1130.39166016 -121.515625 1133.45166016 C-120.855625 1133.45166016 -120.195625 1133.45166016 -119.515625 1133.45166016 C-119.20818359 1134.39138672 -119.20818359 1134.39138672 -118.89453125 1135.35009766 C-118.62511719 1136.16736328 -118.35570312 1136.98462891 -118.078125 1137.82666016 C-117.81128906 1138.63876953 -117.54445313 1139.45087891 -117.26953125 1140.28759766 C-116.56382771 1142.46197814 -116.56382771 1142.46197814 -115.515625 1144.45166016 C-114.855625 1144.45166016 -114.195625 1144.45166016 -113.515625 1144.45166016 C-113.24298828 1145.32177734 -113.24298828 1145.32177734 -112.96484375 1146.20947266 C-111.4738144 1150.84313309 -109.83228924 1155.1492837 -107.515625 1159.45166016 C-106.855625 1159.45166016 -106.195625 1159.45166016 -105.515625 1159.45166016 C-105.185625 1160.60666016 -104.855625 1161.76166016 -104.515625 1162.95166016 C-102.04007919 1170.47490426 -98.14081417 1177.43377614 -94.515625 1184.45166016 C-93.855625 1184.45166016 -93.195625 1184.45166016 -92.515625 1184.45166016 C-92.515625 1185.77166016 -92.515625 1187.09166016 -92.515625 1188.45166016 C-91.855625 1188.78166016 -91.195625 1189.11166016 -90.515625 1189.45166016 C-89.5859375 1191.16650391 -89.5859375 1191.16650391 -88.640625 1193.38916016 C-88.33382812 1194.09943359 -88.02703125 1194.80970703 -87.7109375 1195.54150391 C-87.03760182 1197.18083425 -86.37464319 1198.82481564 -85.74829102 1200.48266602 C-82.75019358 1208.29576756 -78.99172893 1215.69039545 -75.203125 1223.13916016 C-73.91241032 1225.68324808 -72.62462007 1228.22878689 -71.33984375 1230.77587891 C-70.86468575 1231.71719917 -70.86468575 1231.71719917 -70.37992859 1232.67753601 C-67.48786231 1238.44060233 -64.77223801 1244.27885522 -62.08789062 1250.14111328 C-60.22313367 1254.06752699 -58.15604279 1257.83975981 -55.97265625 1261.59619141 C-54.71661336 1264.05776607 -53.70121226 1266.46197283 -52.70214844 1269.03320312 C-50.68196047 1274.12063139 -48.43170631 1279.06390109 -46.07421875 1284.00244141 C-45.66526871 1284.86427536 -45.25631866 1285.72610931 -44.8349762 1286.61405945 C-43.97846635 1288.41716005 -43.12045435 1290.21954781 -42.26098633 1292.02124023 C-40.94903443 1294.77273914 -39.64315063 1297.52705961 -38.33789062 1300.28173828 C-37.50035829 1302.04297641 -36.66247982 1303.80405 -35.82421875 1305.56494141 C-35.43664902 1306.38271561 -35.04907928 1307.20048981 -34.64976501 1308.04304504 C-32.77099121 1311.97279534 -30.8074061 1315.7413426 -28.515625 1319.45166016 C-27.83462462 1321.06223899 -27.18809354 1322.68786057 -26.578125 1324.32666016 C-25.4033951 1327.3550513 -24.19538045 1330.17182957 -22.515625 1332.95166016 C-20.88316881 1335.6575992 -19.70877723 1338.37515836 -18.578125 1341.32666016 C-16.93608827 1345.5972537 -14.90499747 1349.44445493 -12.62109375 1353.40087891 C-11.2263785 1355.98824818 -10.31220298 1358.62742915 -9.515625 1361.45166016 C-8.855625 1361.45166016 -8.195625 1361.45166016 -7.515625 1361.45166016 C-7.29648437 1360.85740234 -7.07734375 1360.26314453 -6.8515625 1359.65087891 C-4.61714944 1353.81052283 -1.94510438 1348.42734336 1.109375 1342.97509766 C2.79324704 1339.88480976 4.12713847 1336.69722578 5.484375 1333.45166016 C6.70295413 1331.01450189 7.94437226 1328.59096028 9.203125 1326.17431641 C10.23922275 1323.97260869 11.10614599 1321.82617145 11.9375 1319.54541016 C13.29703544 1315.85025148 14.93110657 1312.39416164 16.734375 1308.88916016 C20.66607003 1301.14830127 24.48732174 1293.35514342 28.27941895 1285.54519653 C28.95256093 1284.16012715 29.62710028 1282.77573592 30.30310059 1281.39205933 C34.56333828 1272.82423412 34.56333828 1272.82423412 38.1875 1263.97900391 C39.61574478 1260.09435017 41.41377441 1256.62109131 43.421875 1253.01416016 C45.5442059 1249.18251457 47.5599077 1245.36246173 49.3046875 1241.34228516 C52.3488475 1234.36028728 55.89027541 1227.61067837 59.34545898 1220.82543945 C63.78111598 1212.10390702 67.76328053 1203.2892062 71.38134766 1194.19775391 C73.27994316 1189.55387607 73.27994316 1189.55387607 75.484375 1188.45166016 C75.484375 1187.13166016 75.484375 1185.81166016 75.484375 1184.45166016 C76.144375 1184.45166016 76.804375 1184.45166016 77.484375 1184.45166016 C83.8266112 1172.30595562 83.8266112 1172.30595562 88.484375 1159.45166016 C89.144375 1159.45166016 89.804375 1159.45166016 90.484375 1159.45166016 C93.11803487 1154.52952885 95.12913324 1149.87262718 96.484375 1144.45166016 C97.144375 1144.45166016 97.804375 1144.45166016 98.484375 1144.45166016 C99.15557049 1142.99540566 99.82119307 1141.53658148 100.484375 1140.07666016 C100.855625 1139.26455078 101.226875 1138.45244141 101.609375 1137.61572266 C102.60932513 1135.53167583 102.60932513 1135.53167583 102.484375 1133.45166016 C103.144375 1133.45166016 103.804375 1133.45166016 104.484375 1133.45166016 C105.474375 1130.48166016 106.464375 1127.51166016 107.484375 1124.45166016 C108.144375 1124.45166016 108.804375 1124.45166016 109.484375 1124.45166016 C110.144375 1122.14166016 110.804375 1119.83166016 111.484375 1117.45166016 C112.144375 1117.45166016 112.804375 1117.45166016 113.484375 1117.45166016 C115.20205182 1113.46977298 116.89474841 1109.48686613 118.484375 1105.45166016 C119.144375 1105.45166016 119.804375 1105.45166016 120.484375 1105.45166016 C120.608125 1104.81228516 120.731875 1104.17291016 120.859375 1103.51416016 C121.16875 1102.49322266 121.16875 1102.49322266 121.484375 1101.45166016 C122.144375 1101.12166016 122.804375 1100.79166016 123.484375 1100.45166016 C123.649375 1099.79166016 123.814375 1099.13166016 123.984375 1098.45166016 C124.149375 1097.79166016 124.314375 1097.13166016 124.484375 1096.45166016 C125.144375 1096.12166016 125.804375 1095.79166016 126.484375 1095.45166016 C127.15216117 1093.85027002 127.81729192 1092.24773551 128.47119141 1090.640625 C130.57626976 1086.09264125 133.45131377 1081.96185351 136.171875 1077.76416016 C136.80399902 1076.78390869 137.43612305 1075.80365723 138.08740234 1074.79370117 C139.333486 1072.86407998 140.58178114 1070.9358847 141.83251953 1069.00927734 C143.16156659 1066.95147406 144.47015515 1064.88458257 145.76171875 1062.80322266 C153.3655892 1050.81064897 163.70974385 1041.07961295 173.7890625 1031.18310547 C177.66772885 1027.35733002 181.33579497 1023.42020172 184.89233398 1019.29321289 C186.99596169 1016.85989534 189.17685344 1014.50172138 191.359375 1012.13916016 C195.40958792 1007.69915231 199.23971622 1003.13231734 203.01171875 998.45556641 C205.89320567 994.95499225 208.87166896 991.54894726 211.859375 988.13916016 C217.50781931 981.67210073 222.8415341 975.01028235 228.09863281 968.22412109 C230.01073277 965.77841184 231.96099377 963.36438655 233.91113281 960.94897461 C240.07199199 953.31361116 245.99556081 945.5226862 251.84667969 937.6484375 C253.59578748 935.3022133 255.35530817 932.96408864 257.1171875 930.62744141 C265.37848618 919.66681141 273.52551493 908.63406788 281.484375 897.45166016 C282.08733398 896.60474609 282.69029297 895.75783203 283.31152344 894.88525391 C285.18707024 892.24451512 287.05577133 889.5990788 288.921875 886.95166016 C289.48914307 886.15115234 290.05641113 885.35064453 290.64086914 884.52587891 C296.05440208 876.80757452 301.13268447 869.09040205 304.4296875 860.22119141 C305.17753234 858.25740626 305.9921993 856.3184865 306.8515625 854.40087891 C340.41841884 777.614521 313.24398146 682.04253135 288.17523193 606.53857422 C287.52873336 604.58565619 286.89028843 602.63007723 286.25244141 600.67431641 C272.64529529 559.01861328 255.042527 518.71132329 237.00537109 478.81835938 C235.57286693 475.64753555 234.14693128 472.47384308 232.72265625 469.29931641 C228.51986937 459.95662406 224.22280406 450.68686935 219.56640625 441.56103516 C217.96474684 438.42200223 216.41164966 435.26174827 214.87109375 432.09228516 C214.42314453 431.17721191 213.97519531 430.26213867 213.51367188 429.31933594 C212.63523238 427.52377748 211.76260064 425.72536323 210.89648438 423.92382812 C210.29610352 422.70397217 210.29610352 422.70397217 209.68359375 421.45947266 C209.33127686 420.7338916 208.97895996 420.00831055 208.6159668 419.26074219 C207.46161041 417.13946618 207.46161041 417.13946618 204.484375 415.45166016 C199.6593709 421.19571265 198.12701358 427.36120484 197.109375 434.57666016 C195.11864334 446.93287939 190.68194397 458.13287052 183.484375 468.45166016 C182.494375 469.11166016 181.504375 469.77166016 180.484375 470.45166016 C179.47162725 472.11061156 178.47257698 473.77797123 177.484375 475.45166016 C170.68273353 483.28527482 161.66922688 487.14959124 152.484375 491.45166016 C149.93503748 492.66551159 147.39578101 493.89856779 144.859375 495.13916016 C143.77398438 495.65865234 142.68859375 496.17814453 141.5703125 496.71337891 C127.56044598 504.60501258 120.5945025 518.7672109 113.71777344 532.62646484 C111.48888615 536.99985864 109.09446955 540.04647915 105.484375 543.45166016 C104.906875 544.54478516 104.329375 545.63791016 103.734375 546.76416016 C98.70584198 555.94322837 88.47824493 561.8952392 78.74682617 565.00732422 C73.68849406 566.00075947 68.42251355 565.71836517 63.27978516 565.74682617 C61.85064713 565.75823999 60.42154804 565.77851963 58.99267578 565.80834961 C34.339032 566.32184766 15.25179891 555.62643634 -2.96191406 539.79199219 C-7.06726967 536.25044563 -11.30315728 532.86415061 -15.515625 529.45166016 C-16.09070801 528.98083008 -16.66579102 528.51 -17.25830078 528.02490234 C-24.54172624 522.06242454 -31.84198501 516.43897996 -39.74609375 511.30712891 C-51.49704412 503.43448938 -71.85168859 489.44346939 -76.515625 475.45166016 C-77.11503906 474.87931641 -77.71445312 474.30697266 -78.33203125 473.71728516 C-81.07604638 470.87018538 -82.72590242 467.71418816 -84.453125 464.20166016 C-84.79939941 463.50000732 -85.14567383 462.79835449 -85.50244141 462.07543945 C-93.23367432 445.9233923 -95.90694646 429.48822205 -95.828125 411.63916016 C-95.82630219 410.98213104 -95.82447937 410.32510193 -95.82260132 409.64816284 C-95.77546543 399.53943318 -95.24003504 390.20218031 -92.515625 380.45166016 C-92.18691406 379.18837891 -91.85820312 377.92509766 -91.51953125 376.62353516 C-86.5219653 358.84743959 -73.65516078 344.92224217 -58.671875 334.65869141 C-56.59487674 333.4960239 -54.84361648 332.890804 -52.515625 332.45166016 C-52.515625 331.79166016 -52.515625 331.13166016 -52.515625 330.45166016 C-51.88914062 330.24669922 -51.26265625 330.04173828 -50.6171875 329.83056641 C-49.79992187 329.56115234 -48.98265625 329.29173828 -48.140625 329.01416016 C-46.92246094 328.61390625 -46.92246094 328.61390625 -45.6796875 328.20556641 C-43.50530701 327.49986287 -43.50530701 327.49986287 -41.515625 326.45166016 C-41.515625 325.79166016 -41.515625 325.13166016 -41.515625 324.45166016 C-40.95875 324.24541016 -40.401875 324.03916016 -39.828125 323.82666016 C-36.64285345 321.93271491 -34.81044848 319.33489991 -32.515625 316.45166016 C-32.01337402 315.98630859 -31.51112305 315.52095703 -30.99365234 315.04150391 C-29.22145482 313.13523528 -28.42630444 311.35328768 -27.4296875 308.95166016 C-27.05859863 308.06945801 -26.68750977 307.18725586 -26.30517578 306.27832031 C-25.92087402 305.34552246 -25.53657227 304.41272461 -25.140625 303.45166016 C-24.33941893 301.54243761 -23.5373438 299.63357952 -22.734375 297.72509766 C-22.35152344 296.81083008 -21.96867187 295.8965625 -21.57421875 294.95458984 C-19.95528654 291.12680086 -18.23523002 287.3496736 -16.4765625 283.58447266 C-15.64799164 281.74544954 -14.94403608 279.85121118 -14.265625 277.95166016 C-9.68286051 268.78613118 -2.10034765 260.99688688 6.484375 255.45166016 C7.81364247 255.10246555 9.14615465 254.76479781 10.484375 254.45166016 C10.814375 253.79166016 11.144375 253.13166016 11.484375 252.45166016 C14.22592998 251.34268352 16.93823238 250.3389243 19.734375 249.38916016 C20.88099609 248.98600586 20.88099609 248.98600586 22.05078125 248.57470703 C28.75299373 246.25381998 34.70345298 245.28813544 41.828125 245.24853516 C43.03643982 245.23998505 43.03643982 245.23998505 44.26916504 245.23126221 C45.97370096 245.22183692 47.6782549 245.21528807 49.3828125 245.21142578 C51.94825615 245.20179574 54.51287164 245.17078115 57.078125 245.13916016 C69.85434829 245.05483607 81.30403894 246.52338603 93.046875 251.88916016 C93.71783203 252.17597656 94.38878906 252.46279297 95.08007812 252.75830078 C98.97696338 254.49239541 101.55130465 256.40803061 104.484375 259.45166016 C107.96585918 260.23199282 109.20429833 260.47286846 112.484375 259.45166016 C116.31933595 256.90580703 119.74706302 254.17038421 122.484375 250.45166016 C122.09785666 246.98084683 121.02107576 244.11638811 119.5234375 240.98291016 C118.93949219 239.75507813 118.93949219 239.75507813 118.34375 238.50244141 C117.73273438 237.23980469 117.73273438 237.23980469 117.109375 235.95166016 C116.70976563 235.10990234 116.31015625 234.26814453 115.8984375 233.40087891 C113.92843139 229.28589903 111.84787606 225.35650936 109.484375 221.45166016 C108.57275882 219.81878158 107.67066153 218.18055835 106.77734375 216.53759766 C106.27267578 215.61076172 105.76800781 214.68392578 105.24804688 213.72900391 C104.72791016 212.77123047 104.20777344 211.81345703 103.671875 210.82666016 C102.90907227 209.42480469 102.90907227 209.42480469 102.13085938 207.99462891 C101.10159074 206.10307058 100.07270214 204.21130541 99.04418945 202.31933594 C96.96433669 198.49558409 94.87957375 194.6745193 92.79467773 190.85351562 C91.33549598 188.1787569 89.87880157 185.50264774 88.421875 182.82666016 C85.80017007 178.02134198 83.15591726 173.22943539 80.484375 168.45166016 C80.15824219 167.85869141 79.83210938 167.26572266 79.49609375 166.65478516 C77.61894822 163.28673803 75.58577757 160.08171592 73.421875 156.88916016 C71.13988036 153.50884889 69.28003966 150.11780885 67.484375 146.45166016 C66.49530528 144.77848388 65.49418492 143.11240147 64.484375 141.45166016 C62.29781279 137.85090348 60.2871082 134.25743024 58.484375 130.45166016 C57.824375 130.45166016 57.164375 130.45166016 56.484375 130.45166016 C56.154375 128.47166016 55.824375 126.49166016 55.484375 124.45166016 C54.824375 124.45166016 54.164375 124.45166016 53.484375 124.45166016 C53.236875 123.93603516 52.989375 123.42041016 52.734375 122.88916016 C48.58036651 114.78884361 43.57512077 107.20416673 38.6171875 99.58056641 C35.22135758 94.32650337 32.15397554 89.1112133 29.484375 83.45166016 C28.824375 83.45166016 28.164375 83.45166016 27.484375 83.45166016 C27.21415527 82.88036377 26.94393555 82.30906738 26.66552734 81.72045898 C25.45238409 79.3902109 24.08682275 77.30617295 22.5859375 75.15087891 C22.02390625 74.338125 21.461875 73.52537109 20.8828125 72.68798828 C19.70856325 71.00032829 18.53408723 69.31282605 17.359375 67.62548828 C14.82114976 63.95433373 12.35021993 60.32007807 10.1953125 56.40869141 C8.80701087 53.38372474 8.80701087 53.38372474 6.484375 52.45166016 C4.984375 49.95166016 4.984375 49.95166016 3.484375 47.45166016 C2.6252222 46.39688487 1.74956243 45.35537819 0.859375 44.32666016 C-1.515625 41.45166016 -1.515625 41.45166016 -2.515625 38.45166016 C-3.82829018 37.09797419 -5.16129825 35.7636642 -6.515625 34.45166016 C-6.845625 33.79166016 -7.175625 33.13166016 -7.515625 32.45166016 C-8.175625 32.45166016 -8.835625 32.45166016 -9.515625 32.45166016 Z " fill="#FCFEFD" transform="translate(483.515625,80.54833984375)"/>
<path d="M0 0 C0.66 0.33 1.32 0.66 2 1 C-2.95 5.95 -7.9 10.9 -13 16 C-13 10.79628205 -8.49504984 7.5790344 -5 4 C-3.37707762 2.6137538 -1.7331451 1.24569804 0 0 Z " fill="#B6FCBB" transform="translate(486,338)"/>
<path d="M0 0 C0.66 0 1.32 0 2 0 C0.52278578 3.45201639 -1.43794001 5.64961936 -4.125 8.25 C-4.84945312 8.95640625 -5.57390625 9.6628125 -6.3203125 10.390625 C-6.87460937 10.92171875 -7.42890625 11.4528125 -8 12 C-8.66 11.67 -9.32 11.34 -10 11 C-9.278125 10.29875 -8.55625 9.5975 -7.8125 8.875 C-5.83067874 6.91006927 -4.05292847 4.86821544 -2.3125 2.6875 C-1.1678125 1.3571875 -1.1678125 1.3571875 0 0 Z " fill="#49C84F" transform="translate(619,581)"/>
</svg>
