<?xml version="1.0" encoding="UTF-8"?>
<!DOCTYPE svg PUBLIC "-//W3C//DTD SVG 1.1//EN" "http://www.w3.org/Graphics/SVG/1.1/DTD/svg11.dtd">
<svg xmlns="http://www.w3.org/2000/svg" version="1.1" width="2000px" height="2000px" style="shape-rendering:geometricPrecision; text-rendering:geometricPrecision; image-rendering:optimizeQuality; fill-rule:evenodd; clip-rule:evenodd" xmlns:xlink="http://www.w3.org/1999/xlink">
<g><path style="opacity:1" fill="#25a82a" d="M 998.5,90.5 C 1000.72,91.2026 1002.55,92.5359 1004,94.5C 1042.94,146.146 1077.94,200.479 1109,257.5C 1122.68,282.184 1135.84,307.184 1148.5,332.5C 1142.34,338.489 1136.01,344.323 1129.5,350C 1121.81,350.57 1114.15,350.904 1106.5,351C 1081.37,331.717 1054.71,329.384 1026.5,344C 1015.95,350.217 1007.78,358.717 1002,369.5C 996.865,382.434 991.199,395.1 985,407.5C 982.833,409.667 980.667,411.833 978.5,414C 927.238,437.789 911.072,476.289 930,529.5C 944.833,555 965,575.167 990.5,590C 1006.31,604.146 1022.97,617.146 1040.5,629C 1057.08,638.415 1073.75,638.748 1090.5,630C 1098.39,623.105 1105.23,615.272 1111,606.5C 1116.47,593.036 1124.31,581.203 1134.5,571C 1144.89,565.139 1155.55,559.806 1166.5,555C 1185.61,539.85 1196.11,520.016 1198,495.5C 1202.94,484.616 1207.61,473.616 1212,462.5C 1252.2,537.233 1285.53,614.9 1312,695.5C 1329.54,748.257 1338.71,802.424 1339.5,858C 1340.04,896.659 1331.54,933.159 1314,967.5C 1281.01,1015.5 1245.34,1061.5 1207,1105.5C 1196.36,1117.14 1185.36,1128.47 1174,1139.5C 1149.07,1175.67 1126.4,1213.34 1106,1252.5C 1069.67,1325.5 1034.17,1398.83 999.5,1472.5C 964.833,1398.83 929.333,1325.5 893,1252.5C 872.597,1213.34 849.93,1175.67 825,1139.5C 787.002,1100.85 752.002,1059.85 720,1016.5C 708.333,1000.17 696.667,983.833 685,967.5C 666.812,931.902 658.312,894.068 659.5,854C 660.198,812.115 666.031,770.949 677,730.5C 697.035,659.056 723.368,590.056 756,523.5C 791.528,453.111 826.528,382.444 861,311.5C 894.353,246.219 931.686,183.553 973,123.5C 981.333,112.339 989.833,101.339 998.5,90.5 Z"/></g>
<g><path style="opacity:1" fill="#25a82a" d="M 1107.5,159.5 C 1313.86,194.842 1476.36,297.842 1595,468.5C 1699.19,628.288 1736.19,802.621 1706,991.5C 1680.72,1129.6 1621.22,1250.1 1527.5,1353C 1639.3,1452.46 1750.8,1552.3 1862,1652.5C 1862.67,1699.5 1862.67,1746.5 1862,1793.5C 1861.63,1794.42 1861.13,1795.25 1860.5,1796C 1769.5,1796.17 1678.5,1796.33 1587.5,1796.5C 1104.26,1795.79 621.098,1795.46 138,1795.5C 136.343,1747.92 136.01,1700.25 137,1652.5C 248.535,1551.96 360.369,1451.8 472.5,1352C 385.754,1257.01 328.254,1146.18 300,1019.5C 261.67,828.465 293.336,650.132 395,484.5C 483.033,348.706 602.867,252.206 754.5,195C 798.118,179.429 842.785,167.929 888.5,160.5C 889.5,160.833 890.5,161.167 891.5,161.5C 864.233,207.025 838.233,253.358 813.5,300.5C 643.088,360.412 521.588,473.078 449,638.5C 395.772,770.483 389.106,904.816 429,1041.5C 455.789,1128.79 499.789,1205.79 561,1272.5C 571.167,1263.67 581.333,1254.83 591.5,1246C 673.176,1245.14 754.842,1245.64 836.5,1247.5C 842.034,1257.21 847.368,1267.04 852.5,1277C 777.418,1277.01 702.418,1277.67 627.5,1279C 612.312,1292.1 597.312,1305.43 582.5,1319C 587.485,1318.49 592.485,1318.49 597.5,1319C 594.71,1318.44 592.377,1317.11 590.5,1315C 590.833,1314.67 591.167,1314.33 591.5,1314C 600.359,1311.57 609.359,1309.73 618.5,1308.5C 627.14,1309.76 635.806,1310.76 644.5,1311.5C 645.293,1311.07 646.127,1310.74 647,1310.5C 651.504,1312.15 656.171,1313.15 661,1313.5C 664.077,1312.54 667.077,1312.54 670,1313.5C 672.653,1312.67 675.32,1311.67 678,1310.5C 678.667,1311.17 679.333,1311.83 680,1312.5C 681.667,1311.83 683.333,1311.17 685,1310.5C 688.553,1312.84 692.386,1313.17 696.5,1311.5C 701.085,1312.99 705.752,1313.49 710.5,1313C 708.986,1311.56 708.653,1310.06 709.5,1308.5C 708.833,1308.17 708.167,1307.83 707.5,1307.5C 704.849,1308.88 702.015,1309.88 699,1310.5C 697.225,1309.73 695.725,1308.56 694.5,1307C 697.355,1303.78 700.855,1301.95 705,1301.5C 709.5,1302 714,1302.5 718.5,1303C 719.927,1305.37 721.761,1305.87 724,1304.5C 726.244,1306.99 728.577,1306.99 731,1304.5C 732.709,1307.71 734.209,1307.88 735.5,1305C 740.493,1303.49 742.493,1305.32 741.5,1310.5C 743.75,1310.18 745.75,1310.68 747.5,1312C 745.074,1313.14 742.741,1314.48 740.5,1316C 744.401,1316.05 748.235,1316.22 752,1316.5C 752.5,1316.33 753,1316.17 753.5,1316C 752.328,1315.58 751.328,1314.91 750.5,1314C 751.891,1312.98 753.391,1312.15 755,1311.5C 757.359,1312.72 758.859,1314.05 759.5,1315.5C 764.73,1314.4 764.73,1313.56 759.5,1313C 759.867,1311.24 759.034,1309.74 757,1308.5C 754.075,1309.32 751.242,1308.82 748.5,1307C 747.167,1306.33 747.167,1305.67 748.5,1305C 749.549,1304.51 750.549,1304.67 751.5,1305.5C 754.373,1304.13 757.373,1303.13 760.5,1302.5C 763.028,1303.52 763.028,1304.68 760.5,1306C 761.833,1306.67 761.833,1307.33 760.5,1308C 761,1308.17 761.5,1308.33 762,1308.5C 763.667,1306.56 765.5,1304.72 767.5,1303C 770.167,1302.67 772.833,1302.33 775.5,1302C 774.903,1300.37 775.237,1298.71 776.5,1297C 779.003,1296.13 781.003,1296.79 782.5,1299C 785.5,1299.67 788.5,1299.67 791.5,1299C 788.629,1298.88 785.962,1298.22 783.5,1297C 786.66,1295.63 789.994,1294.63 793.5,1294C 792.975,1293.31 792.308,1292.81 791.5,1292.5C 784.739,1295.93 778.406,1295.1 772.5,1290C 777.977,1285.54 783.644,1285.04 789.5,1288.5C 789.158,1285.49 790.825,1283.83 794.5,1283.5C 795.442,1283.61 796.275,1283.94 797,1284.5C 803.115,1283.96 809.115,1282.96 815,1281.5C 824.258,1281.7 833.425,1281.7 842.5,1281.5C 846.146,1282.27 849.812,1282.94 853.5,1283.5C 858.212,1282.08 863.045,1281.08 868,1280.5C 873.358,1293.57 878.525,1306.74 883.5,1320C 882.602,1322.98 880.602,1325.65 877.5,1328C 874.586,1328.11 871.752,1327.61 869,1326.5C 862.616,1327.48 857.282,1325.48 853,1320.5C 852.208,1318.41 851.041,1316.58 849.5,1315C 852.681,1312.91 855.681,1310.57 858.5,1308C 846.526,1307.94 846.526,1306.61 858.5,1304C 855.8,1303.75 853.133,1303.75 850.5,1304C 850.167,1303.67 849.833,1303.33 849.5,1303C 853.163,1300.54 853.163,1297.88 849.5,1295C 845.393,1293.48 841.393,1293.32 837.5,1294.5C 834.972,1293.48 834.972,1292.32 837.5,1291C 836.601,1289.76 835.434,1288.93 834,1288.5C 829.632,1289.99 825.132,1290.82 820.5,1291C 817.465,1294.02 813.799,1295.68 809.5,1296C 810.833,1296.67 810.833,1297.33 809.5,1298C 806.401,1298.9 803.401,1299.23 800.5,1299C 802.125,1299.85 802.458,1300.85 801.5,1302C 796.251,1301.64 790.918,1302.14 785.5,1303.5C 786.668,1305.4 788.335,1305.56 790.5,1304C 793.167,1303.33 795.833,1303.33 798.5,1304C 799.155,1305.49 800.155,1306.65 801.5,1307.5C 802.852,1306.1 804.519,1305.44 806.5,1305.5C 810.997,1307.46 815.664,1309.13 820.5,1310.5C 821.086,1310.29 821.586,1309.96 822,1309.5C 823.362,1310.92 824.862,1311.76 826.5,1312C 825.672,1312.91 824.672,1313.58 823.5,1314C 823.833,1314.33 824.167,1314.67 824.5,1315C 828.662,1315.53 832.662,1316.53 836.5,1318C 837.833,1318.67 837.833,1319.33 836.5,1320C 833.966,1320.52 831.8,1321.68 830,1323.5C 827.851,1321.34 825.351,1320.17 822.5,1320C 822.167,1320.33 821.833,1320.67 821.5,1321C 823.398,1321.9 825.064,1323.07 826.5,1324.5C 824.589,1326.7 822.255,1328.37 819.5,1329.5C 814.015,1328.67 809.015,1326.67 804.5,1323.5C 801.897,1324.56 799.23,1324.73 796.5,1324C 795.167,1323.33 795.167,1322.67 796.5,1322C 799.099,1321.23 801.599,1321.4 804,1322.5C 805.961,1319.86 808.461,1318.03 811.5,1317C 807.915,1315.73 804.248,1313.89 800.5,1311.5C 799.522,1311.98 798.689,1312.64 798,1313.5C 796.612,1312.45 795.112,1312.28 793.5,1313C 792.449,1314.38 791.116,1315.38 789.5,1316C 790.833,1317 790.833,1318 789.5,1319C 788.128,1319.4 786.795,1319.9 785.5,1320.5C 782.769,1320.14 780.103,1319.98 777.5,1320C 781.323,1321.28 784.99,1322.94 788.5,1325C 786.542,1326.58 784.542,1326.41 782.5,1324.5C 781.389,1325.61 780.055,1326.28 778.5,1326.5C 774.679,1325.44 770.679,1324.77 766.5,1324.5C 761.93,1326.67 756.93,1328.84 751.5,1331C 750.5,1332 749.5,1333 748.5,1334C 756.296,1338.08 764.629,1340.74 773.5,1342C 773.377,1343.79 773.377,1345.62 773.5,1347.5C 775.527,1349.67 777.86,1350.01 780.5,1348.5C 780.372,1346.35 780.872,1344.35 782,1342.5C 785.137,1341.84 787.97,1340.51 790.5,1338.5C 789.687,1337.19 788.687,1336.02 787.5,1335C 790.568,1332.72 793.068,1329.88 795,1326.5C 800.347,1326.98 805.513,1328.15 810.5,1330C 811.227,1331.4 811.727,1332.9 812,1334.5C 816.208,1335.7 819.875,1334.7 823,1331.5C 825.92,1334.62 828.086,1337.78 829.5,1341C 833.275,1342.39 836.942,1344.05 840.5,1346C 838.023,1347.71 836.689,1349.71 836.5,1352C 838.167,1352.33 839.833,1352.67 841.5,1353C 840.939,1354.57 841.606,1355.9 843.5,1357C 842.975,1357.69 842.308,1358.19 841.5,1358.5C 839.817,1357.41 837.984,1356.74 836,1356.5C 833.105,1357.09 830.272,1357.26 827.5,1357C 827.167,1356.67 826.833,1356.33 826.5,1356C 829.07,1354.62 831.404,1352.95 833.5,1351C 829.477,1350.95 825.477,1351.45 821.5,1352.5C 817.857,1352.61 814.19,1352.44 810.5,1352C 811.5,1353 812.5,1354 813.5,1355C 811.993,1355.84 811.493,1357 812,1358.5C 813.734,1359.25 815.567,1359.75 817.5,1360C 818.833,1360.67 818.833,1361.33 817.5,1362C 815.888,1362.72 814.388,1362.55 813,1361.5C 811.448,1362.97 809.614,1363.97 807.5,1364.5C 805.65,1363.76 804.984,1362.76 805.5,1361.5C 802.627,1362.77 799.627,1363.61 796.5,1364C 793.807,1364.34 791.807,1365.68 790.5,1368C 784.054,1368.07 778.887,1370.57 775,1375.5C 774.085,1374.67 773.419,1373.67 773,1372.5C 772.437,1375.71 770.604,1378.55 767.5,1381C 762.944,1382.97 758.278,1384.64 753.5,1386C 749.826,1388.49 748.659,1391.99 750,1396.5C 749.121,1399.35 747.454,1400.01 745,1398.5C 743.626,1396.18 743.293,1393.84 744,1391.5C 736.936,1389 729.936,1389 723,1391.5C 710.112,1388.83 700.112,1393.17 693,1404.5C 691.606,1409.38 693.439,1412.04 698.5,1412.5C 704.015,1412.61 708.681,1410.78 712.5,1407C 715.801,1406 719.134,1405.67 722.5,1406C 722.833,1406.33 723.167,1406.67 723.5,1407C 719.508,1409.99 715.842,1413.33 712.5,1417C 716.5,1417.33 720.5,1417.67 724.5,1418C 725.167,1418.67 725.833,1419.33 726.5,1420C 718.193,1428.04 719.86,1432.04 731.5,1432C 729.833,1433.17 728.167,1434.33 726.5,1435.5C 722.492,1434.32 718.825,1432.49 715.5,1430C 714.896,1427.53 713.562,1425.53 711.5,1424C 705.896,1423.36 700.896,1421.36 696.5,1418C 685.376,1418.85 675.376,1415.85 666.5,1409C 668.797,1407.74 669.63,1405.9 669,1403.5C 666.017,1398.92 662.85,1394.42 659.5,1390C 660.902,1388.66 660.569,1387.82 658.5,1387.5C 657,1387.45 656,1388.12 655.5,1389.5C 657.52,1393.48 658.853,1397.65 659.5,1402C 657.779,1403.44 656.279,1402.94 655,1400.5C 654.383,1399.55 654.549,1398.72 655.5,1398C 654.167,1397 652.833,1396 651.5,1395C 652.357,1394.31 653.023,1393.48 653.5,1392.5C 651.889,1389.78 651.056,1386.78 651,1383.5C 646.038,1381.59 643.538,1377.93 643.5,1372.5C 644.903,1370.27 646.07,1367.94 647,1365.5C 651.219,1362.95 654.386,1359.45 656.5,1355C 654.5,1353.67 652.5,1352.33 650.5,1351C 655.833,1348.67 655.833,1346.33 650.5,1344C 653.264,1342.46 653.097,1341.29 650,1340.5C 649.185,1338.38 648.185,1336.38 647,1334.5C 643.849,1336.79 641.015,1336.62 638.5,1334C 631.911,1334.09 625.578,1332.93 619.5,1330.5C 616.644,1332.88 613.311,1334.21 609.5,1334.5C 607.099,1332.47 604.432,1332.3 601.5,1334C 600.449,1335.38 599.116,1336.38 597.5,1337C 598.654,1337.91 598.487,1338.75 597,1339.5C 594.134,1337.11 591.134,1337.11 588,1339.5C 586.941,1339.37 586.108,1338.87 585.5,1338C 586.623,1336.96 587.956,1336.29 589.5,1336C 584.321,1336.12 579.654,1334.78 575.5,1332C 576.051,1330.6 576.384,1329.27 576.5,1328C 580.346,1326.33 584.346,1325.16 588.5,1324.5C 586.657,1324.24 584.657,1324.08 582.5,1324C 582.619,1322.72 582.119,1321.55 581,1320.5C 452.203,1434.3 323.703,1548.46 195.5,1663C 331.831,1664.05 468.164,1664.55 604.5,1664.5C 1003.83,1664.58 1403.17,1664.08 1802.5,1663C 1765.5,1630 1728.5,1597 1691.5,1564C 1690.07,1563.73 1689.07,1564.4 1688.5,1566C 1692.49,1568.76 1693.16,1571.93 1690.5,1575.5C 1687.11,1571.47 1682.78,1568.97 1677.5,1568C 1677.09,1564.58 1675.43,1561.92 1672.5,1560C 1672.83,1559.67 1673.17,1559.33 1673.5,1559C 1677.87,1560.88 1682.53,1561.54 1687.5,1561C 1582.5,1467.33 1477.5,1373.67 1372.5,1280C 1351.92,1278.69 1331.26,1278.02 1310.5,1278C 1255.83,1277.67 1201.17,1277.33 1146.5,1277C 1151.63,1267.04 1156.97,1257.21 1162.5,1247.5C 1244.16,1245.64 1325.82,1245.14 1407.5,1246C 1416.46,1253.29 1425.13,1260.96 1433.5,1269C 1435.37,1270.6 1437.37,1271.6 1439.5,1272C 1546.54,1153.27 1599.04,1013.44 1597,852.5C 1590.94,698.123 1535.27,565.123 1430,453.5C 1361.42,383.097 1280.25,332.264 1186.5,301C 1171.95,275.407 1157.79,249.574 1144,223.5C 1132.59,203.668 1120.92,184.002 1109,164.5C 1107.99,162.975 1107.49,161.308 1107.5,159.5 Z M 776.5,1303.5 C 778.966,1302.37 781.633,1302.2 784.5,1303C 781.692,1303.6 779.192,1304.76 777,1306.5C 776.493,1308 776.993,1309.16 778.5,1310C 778.167,1310.33 777.833,1310.67 777.5,1311C 779.429,1311.35 781.429,1312.02 783.5,1313C 781.507,1315 779.173,1316.5 776.5,1317.5C 776.06,1316.3 775.727,1315.14 775.5,1314C 772.669,1315.23 770.336,1314.56 768.5,1312C 768.833,1311.67 769.167,1311.33 769.5,1311C 768.707,1309.91 768.04,1308.75 767.5,1307.5C 770.5,1306.67 773.5,1305.83 776.5,1305C 777.738,1304.31 777.738,1303.81 776.5,1303.5 Z"/></g>
<g><path style="opacity:1" fill="#25a82a" d="M 1081.5,371.5 C 1082.83,372.167 1082.83,372.167 1081.5,371.5 Z"/></g>
<g><path style="opacity:1" fill="#25a82a" d="M 1193.5,1286.5 C 1195.37,1287.51 1197.37,1288.34 1199.5,1289C 1204.17,1289.33 1208.83,1289.67 1213.5,1290C 1217.5,1291.67 1217.5,1293.33 1213.5,1295C 1221.66,1294.89 1229.83,1295.73 1238,1297.5C 1240.5,1297.31 1242.84,1296.64 1245,1295.5C 1250.3,1297.89 1255.8,1299.89 1261.5,1301.5C 1263.06,1301.28 1264.39,1300.61 1265.5,1299.5C 1270.48,1300.43 1275.31,1300.77 1280,1300.5C 1280.37,1299.58 1280.87,1298.75 1281.5,1298C 1286.07,1297.06 1290.41,1297.56 1294.5,1299.5C 1295.99,1299.1 1297.49,1298.77 1299,1298.5C 1301.95,1299.91 1305.12,1300.75 1308.5,1301C 1314.83,1301.33 1321.17,1301.67 1327.5,1302C 1331.23,1304.51 1335.23,1305.01 1339.5,1303.5C 1344.14,1304.23 1348.81,1304.89 1353.5,1305.5C 1361,1303.18 1368.67,1303.01 1376.5,1305C 1379.63,1307.13 1382.46,1309.63 1385,1312.5C 1385.62,1313.45 1385.45,1314.28 1384.5,1315C 1391.19,1318.15 1390.85,1319.31 1383.5,1318.5C 1375.44,1323.05 1366.94,1324.72 1358,1323.5C 1357.63,1324.42 1357.13,1325.25 1356.5,1326C 1360.56,1327.03 1362.56,1329.36 1362.5,1333C 1361.38,1334.04 1360.04,1334.71 1358.5,1335C 1357.88,1337.18 1356.72,1339.01 1355,1340.5C 1350.82,1337.31 1346.98,1333.81 1343.5,1330C 1344.17,1329 1344.83,1328 1345.5,1327C 1348.75,1325.42 1351.75,1323.42 1354.5,1321C 1353.97,1320.31 1353.31,1319.81 1352.5,1319.5C 1351.13,1320.71 1349.63,1321.71 1348,1322.5C 1344.71,1320.4 1341.21,1320.07 1337.5,1321.5C 1335.5,1323.33 1333.33,1324.99 1331,1326.5C 1328.39,1325.73 1325.73,1325.06 1323,1324.5C 1317.54,1325.26 1312.04,1325.76 1306.5,1326C 1303.67,1328.25 1300.67,1330.25 1297.5,1332C 1299.13,1333.31 1300.97,1334.14 1303,1334.5C 1306.94,1332.86 1310.44,1333.53 1313.5,1336.5C 1314.48,1336.02 1315.31,1335.36 1316,1334.5C 1318.85,1337.35 1322.02,1339.85 1325.5,1342C 1324.29,1344.23 1324.96,1345.9 1327.5,1347C 1326.67,1347.83 1325.83,1348.67 1325,1349.5C 1322.91,1347.08 1321.24,1344.41 1320,1341.5C 1314.38,1337.29 1313.55,1337.95 1317.5,1343.5C 1315.6,1348.99 1312.1,1352.99 1307,1355.5C 1305.21,1354.59 1303.38,1354.42 1301.5,1355C 1300.78,1356.99 1299.78,1358.82 1298.5,1360.5C 1300.34,1361.92 1302.34,1363.09 1304.5,1364C 1307.45,1368.09 1306.29,1370.25 1301,1370.5C 1299.47,1366.58 1296.64,1364.41 1292.5,1364C 1290.1,1360.52 1286.93,1359.68 1283,1361.5C 1281.47,1360.78 1280.14,1359.78 1279,1358.5C 1276.93,1359.79 1274.76,1360.95 1272.5,1362C 1274.78,1362.23 1276.78,1363.07 1278.5,1364.5C 1280.99,1363.04 1283.33,1363.2 1285.5,1365C 1284,1366.25 1282.33,1367.25 1280.5,1368C 1286.07,1370.19 1290.57,1373.69 1294,1378.5C 1294.17,1380.68 1293.33,1382.51 1291.5,1384C 1291.83,1384.33 1292.17,1384.67 1292.5,1385C 1290.5,1387 1288.5,1389 1286.5,1391C 1281.18,1391.12 1276.18,1392.28 1271.5,1394.5C 1268.14,1393.03 1264.97,1393.37 1262,1395.5C 1261.25,1396.64 1261.42,1397.64 1262.5,1398.5C 1268.43,1400.71 1273.6,1404.05 1278,1408.5C 1278.31,1409.77 1278.81,1410.93 1279.5,1412C 1276.99,1413.42 1274.66,1415.09 1272.5,1417C 1265.9,1415.21 1259.57,1412.54 1253.5,1409C 1252.5,1408.33 1251.5,1408.33 1250.5,1409C 1251.01,1411.57 1252.01,1413.9 1253.5,1416C 1258.04,1419.4 1263.04,1422.07 1268.5,1424C 1270.17,1427 1272.5,1429.33 1275.5,1431C 1275.17,1431.33 1274.83,1431.67 1274.5,1432C 1271.76,1431.98 1269.09,1431.31 1266.5,1430C 1261.73,1425.23 1256.4,1421.23 1250.5,1418C 1249.34,1415.18 1248.17,1412.35 1247,1409.5C 1243.68,1407.18 1240.68,1404.51 1238,1401.5C 1236.76,1402.87 1235.26,1403.87 1233.5,1404.5C 1231.49,1402.99 1229.83,1401.16 1228.5,1399C 1224.57,1397.03 1220.9,1394.7 1217.5,1392C 1213.58,1392.6 1209.58,1393.27 1205.5,1394C 1200.86,1398.32 1195.86,1402.15 1190.5,1405.5C 1191.73,1407.93 1192.73,1410.43 1193.5,1413C 1192.02,1415.44 1190.19,1417.61 1188,1419.5C 1178.14,1411.98 1170.14,1402.98 1164,1392.5C 1161.07,1396.3 1157.9,1396.47 1154.5,1393C 1153.17,1392.33 1153.17,1391.67 1154.5,1391C 1151.02,1390.62 1148.02,1389.29 1145.5,1387C 1136.41,1387.3 1127.41,1386.97 1118.5,1386C 1116.11,1383.32 1113.27,1382.82 1110,1384.5C 1108.19,1383.92 1106.36,1383.42 1104.5,1383C 1101.56,1381.19 1098.56,1379.69 1095.5,1378.5C 1096.42,1374.06 1097.76,1369.73 1099.5,1365.5C 1100.73,1364.72 1102.06,1364.22 1103.5,1364C 1102.57,1362.81 1101.9,1361.47 1101.5,1360C 1108.94,1339.17 1116.28,1318.34 1123.5,1297.5C 1125.75,1297.18 1127.75,1297.68 1129.5,1299C 1129.17,1299.33 1128.83,1299.67 1128.5,1300C 1129.89,1302.67 1131.56,1305.17 1133.5,1307.5C 1133.02,1308.48 1132.36,1309.31 1131.5,1310C 1133.42,1310.22 1135.09,1309.55 1136.5,1308C 1134.47,1305.91 1132.81,1303.57 1131.5,1301C 1132.67,1299.83 1133.83,1298.67 1135,1297.5C 1136.49,1298.25 1136.65,1299.09 1135.5,1300C 1136.33,1300.17 1137.17,1300.33 1138,1300.5C 1140.63,1299.17 1143.46,1298.34 1146.5,1298C 1145.17,1297.33 1145.17,1296.67 1146.5,1296C 1150.83,1295.67 1155.17,1295.33 1159.5,1295C 1159.17,1294.67 1158.83,1294.33 1158.5,1294C 1159.62,1292.96 1160.96,1292.29 1162.5,1292C 1170.46,1290.94 1178.46,1290.28 1186.5,1290C 1188.58,1288.17 1190.92,1287 1193.5,1286.5 Z"/></g>
<g><path style="opacity:1" fill="#25a82a" d="M 755.5,1290.5 C 758.917,1290.74 761.917,1291.91 764.5,1294C 763.892,1294.87 763.059,1295.37 762,1295.5C 759.476,1294.9 756.976,1294.23 754.5,1293.5C 753.325,1294.85 752.325,1294.69 751.5,1293C 753.111,1292.71 754.444,1291.88 755.5,1290.5 Z"/></g>
<g><path style="opacity:1" fill="#25a82a" d="M 767.5,1291.5 C 769.423,1291.79 771.09,1292.63 772.5,1294C 771.427,1295.59 770.427,1297.09 769.5,1298.5C 768.692,1298.19 768.025,1297.69 767.5,1297C 767.652,1295.08 767.652,1293.24 767.5,1291.5 Z"/></g>
<g><path style="opacity:1" fill="#25a82a" d="M 735.5,1300.5 C 736.028,1299.28 736.695,1298.11 737.5,1297C 735.616,1296.78 733.949,1296.12 732.5,1295C 733.43,1294.01 734.596,1293.51 736,1293.5C 738.339,1295.84 741.505,1298.01 745.5,1300C 742.278,1301.82 738.945,1301.98 735.5,1300.5 Z"/></g>
<g><path style="opacity:1" fill="#25a82a" d="M 721.5,1294.5 C 722.552,1294.35 723.552,1294.52 724.5,1295C 725.833,1295.67 725.833,1296.33 724.5,1297C 726.5,1297.33 728.5,1297.67 730.5,1298C 730.5,1299.33 730.5,1300.67 730.5,1302C 729.892,1302.87 729.059,1303.37 728,1303.5C 725.752,1302.05 723.252,1301.21 720.5,1301C 721.061,1299.43 720.394,1298.1 718.5,1297C 719.571,1296.15 720.571,1295.31 721.5,1294.5 Z"/></g>
<g><path style="opacity:1" fill="#25a82a" d="M 713.5,1295.5 C 718.088,1295.88 718.422,1297.05 714.5,1299C 705.737,1299.1 705.404,1297.94 713.5,1295.5 Z"/></g>
<g><path style="opacity:1" fill="#25a82a" d="M 759.5,1296.5 C 760.688,1297.68 761.855,1297.68 763,1296.5C 765.021,1298.65 764.521,1300.15 761.5,1301C 758.615,1301.28 755.948,1300.61 753.5,1299C 754.865,1297.32 756.365,1297.15 758,1298.5C 758.717,1297.96 759.217,1297.29 759.5,1296.5 Z"/></g>
<g><path style="opacity:1" fill="#25a82a" d="M 735.5,1300.5 C 734.457,1302.85 733.124,1303.02 731.5,1301C 732.682,1299.23 734.015,1299.07 735.5,1300.5 Z"/></g>
<g><path style="opacity:1" fill="#25a82a" d="M 801.5,1315.5 C 806.796,1316.69 806.796,1317.52 801.5,1318C 800.402,1317.23 800.402,1316.4 801.5,1315.5 Z"/></g>
<g><path style="opacity:1" fill="#25a82a" d="M 579.5,1338.5 C 582.674,1338.95 583.007,1339.95 580.5,1341.5C 578.481,1340.87 578.147,1339.87 579.5,1338.5 Z"/></g>
<g><path style="opacity:1" fill="#25a82a" d="M 643.5,1343.5 C 646.674,1343.95 647.007,1344.95 644.5,1346.5C 642.481,1345.87 642.147,1344.87 643.5,1343.5 Z"/></g>
<g><path style="opacity:1" fill="#25a82a" d="M 1327.5,1349.5 C 1331.23,1350.85 1334.9,1352.35 1338.5,1354C 1333.22,1357.68 1329.22,1356.68 1326.5,1351C 1327.06,1350.62 1327.39,1350.12 1327.5,1349.5 Z"/></g>
<g><path style="opacity:1" fill="#25a82a" d="M 1329.5,1357.5 C 1331.58,1357.47 1333.42,1358.14 1335,1359.5C 1335.1,1362.07 1335.93,1364.57 1337.5,1367C 1337.17,1367.33 1336.83,1367.67 1336.5,1368C 1333.07,1369.78 1329.74,1370.94 1326.5,1371.5C 1325.19,1370.69 1324.02,1369.69 1323,1368.5C 1322.38,1369.45 1322.55,1370.28 1323.5,1371C 1321.08,1374.31 1319.08,1374.14 1317.5,1370.5C 1316.41,1371.87 1316.74,1373.03 1318.5,1374C 1315.6,1376.04 1313.26,1375.37 1311.5,1372C 1314.59,1367.83 1318.59,1366.33 1323.5,1367.5C 1324.77,1365.17 1326.77,1364 1329.5,1364C 1330.09,1361.62 1330.09,1359.46 1329.5,1357.5 Z"/></g>
<g><path style="opacity:1" fill="#25a82a" d="M 1093.5,1381.5 C 1095.74,1382.39 1097.74,1383.72 1099.5,1385.5C 1100.68,1384.15 1101.68,1384.31 1102.5,1386C 1102.17,1386.33 1101.83,1386.67 1101.5,1387C 1106.35,1388.26 1110.68,1387.42 1114.5,1384.5C 1118.61,1387.27 1122.94,1389.77 1127.5,1392C 1123.97,1396.19 1119.8,1399.69 1115,1402.5C 1111.91,1401.86 1109.08,1402.69 1106.5,1405C 1098.27,1407.24 1090.27,1409.24 1082.5,1411C 1083.67,1411.42 1084.67,1412.09 1085.5,1413C 1092.01,1413.35 1098.68,1412.52 1105.5,1410.5C 1106.72,1410.89 1107.39,1411.72 1107.5,1413C 1104.34,1423.5 1097.67,1430.83 1087.5,1435C 1083.82,1438.4 1080.32,1441.9 1077,1445.5C 1077.18,1450.85 1079.18,1455.52 1083,1459.5C 1083.52,1462.92 1084.35,1466.25 1085.5,1469.5C 1085,1470.5 1084.5,1471.5 1084,1472.5C 1081.06,1474.39 1077.89,1475.89 1074.5,1477C 1072.19,1479.49 1069.52,1481.49 1066.5,1483C 1069.71,1486.21 1070.88,1490.04 1070,1494.5C 1068.12,1496.02 1065.95,1497.02 1063.5,1497.5C 1062.71,1500.85 1061.88,1504.18 1061,1507.5C 1056.13,1512.7 1050.97,1517.53 1045.5,1522C 1042.17,1523.17 1038.84,1524.33 1035.5,1525.5C 1030.52,1524.73 1025.69,1524.73 1021,1525.5C 1019.71,1525.95 1018.55,1526.62 1017.5,1527.5C 1010.03,1524.88 1008.53,1520.21 1013,1513.5C 1031.59,1484.65 1050.93,1456.31 1071,1428.5C 1077.85,1412.8 1085.35,1397.13 1093.5,1381.5 Z"/></g>
<g><path style="opacity:1" fill="#25a82a" d="M 1298.5,1385.5 C 1301.15,1387.46 1301.15,1389.46 1298.5,1391.5C 1296,1389.6 1296,1387.6 1298.5,1385.5 Z"/></g>
<g><path style="opacity:1" fill="#25a82a" d="M 909.5,1390.5 C 911.155,1393.79 913.322,1396.79 916,1399.5C 916.413,1402.23 917.08,1404.9 918,1407.5C 921.279,1413.38 923.945,1419.38 926,1425.5C 920.245,1423.55 915.745,1420.05 912.5,1415C 909.833,1413 907.167,1411 904.5,1409C 905.711,1407.89 905.711,1406.72 904.5,1405.5C 907.383,1402.57 909.05,1399.07 909.5,1395C 907.069,1393.57 907.069,1392.07 909.5,1390.5 Z"/></g>
<g><path style="opacity:1" fill="#25a82a" d="M 1270.5,1395.5 C 1276.14,1395.59 1276.64,1396.92 1272,1399.5C 1269.5,1398.84 1269,1397.51 1270.5,1395.5 Z"/></g>
<g><path style="opacity:1" fill="#25a82a" d="M 1305.5,1398.5 C 1308.6,1398.09 1310.93,1399.26 1312.5,1402C 1310.19,1403.83 1310.53,1405.49 1313.5,1407C 1313,1407.5 1312.5,1408 1312,1408.5C 1309.71,1407.18 1307.55,1405.68 1305.5,1404C 1305.35,1402.18 1305.35,1400.35 1305.5,1398.5 Z"/></g>
<g><path style="opacity:1" fill="#25a82a" d="M 735.5,1402.5 C 737.76,1403.24 737.927,1404.24 736,1405.5C 734.272,1404.65 734.105,1403.65 735.5,1402.5 Z"/></g>
<g><path style="opacity:1" fill="#25a82a" d="M 739.5,1402.5 C 746.307,1403.28 752.64,1405.45 758.5,1409C 757.975,1409.69 757.308,1410.19 756.5,1410.5C 751.03,1408.1 745.363,1406.27 739.5,1405C 738.402,1404.23 738.402,1403.4 739.5,1402.5 Z"/></g>
<g><path style="opacity:1" fill="#25a82a" d="M 516.5,1408.5 C 519.674,1408.95 520.007,1409.95 517.5,1411.5C 515.481,1410.87 515.147,1409.87 516.5,1408.5 Z"/></g>
<g><path style="opacity:1" fill="#25a82a" d="M 763.5,1409.5 C 767.048,1409.09 770.381,1409.59 773.5,1411C 772.421,1411.96 771.255,1412.79 770,1413.5C 768.87,1412.89 767.537,1412.89 766,1413.5C 762.812,1413.45 761.979,1412.11 763.5,1409.5 Z"/></g>
<g><path style="opacity:1" fill="#25a82a" d="M 1319.5,1411.5 C 1321.76,1412.24 1321.93,1413.24 1320,1414.5C 1318.27,1413.65 1318.1,1412.65 1319.5,1411.5 Z"/></g>
<g><path style="opacity:1" fill="#25a82a" d="M 1195.5,1415.5 C 1198.24,1416.74 1200.58,1418.57 1202.5,1421C 1200.19,1424.29 1198.02,1424.12 1196,1420.5C 1194.48,1418.86 1194.31,1417.19 1195.5,1415.5 Z"/></g>
<g><path style="opacity:1" fill="#25a82a" d="M 1331.5,1415.5 C 1337.34,1417.45 1337.84,1420.12 1333,1423.5C 1331.06,1422.56 1329.39,1421.23 1328,1419.5C 1326.7,1420.78 1325.54,1420.62 1324.5,1419C 1325.65,1417.26 1326.98,1417.09 1328.5,1418.5C 1329.85,1417.81 1330.85,1416.81 1331.5,1415.5 Z"/></g>
<g><path style="opacity:1" fill="#25a82a" d="M 1308.5,1420.5 C 1311.01,1422.26 1313.68,1423.76 1316.5,1425C 1314.3,1427.05 1311.63,1428.05 1308.5,1428C 1309.48,1429.78 1309.15,1431.45 1307.5,1433C 1304.35,1432.16 1301.35,1432.5 1298.5,1434C 1297.45,1432.61 1297.28,1431.11 1298,1429.5C 1302.31,1427.35 1305.81,1424.35 1308.5,1420.5 Z"/></g>
<g><path style="opacity:1" fill="#25a82a" d="M 734.5,1430.5 C 737.01,1432.42 738.177,1434.75 738,1437.5C 741.499,1434.4 744.999,1434.23 748.5,1437C 753.465,1438.68 758.298,1438.51 763,1436.5C 767.088,1438.26 770.921,1440.43 774.5,1443C 775.257,1444.51 776.257,1445.85 777.5,1447C 783.912,1446.6 789.746,1448.1 795,1451.5C 795.151,1454.12 795.985,1456.45 797.5,1458.5C 796.91,1459.8 795.91,1460.63 794.5,1461C 797.191,1460.95 799.024,1462.11 800,1464.5C 802.617,1462.35 805.45,1462.18 808.5,1464C 810.604,1464.79 811.937,1466.29 812.5,1468.5C 813.748,1467.96 814.915,1467.29 816,1466.5C 819.978,1468.06 824.145,1468.89 828.5,1469C 831.535,1472.02 835.201,1473.68 839.5,1474C 841.257,1479.51 839.591,1483.84 834.5,1487C 830.084,1489.96 825.584,1492.79 821,1495.5C 817.854,1506.93 811.354,1516.09 801.5,1523C 792.113,1524.18 783.113,1526.85 774.5,1531C 772.622,1534.77 770.622,1538.44 768.5,1542C 764.832,1544.85 760.832,1547.01 756.5,1548.5C 751.992,1554.17 746.658,1559.01 740.5,1563C 737.604,1563.72 734.604,1564.22 731.5,1564.5C 728.678,1563.64 726.012,1562.8 723.5,1562C 723.043,1562.41 722.709,1562.91 722.5,1563.5C 723.737,1564.28 724.737,1565.28 725.5,1566.5C 724.167,1568.17 724.167,1569.83 725.5,1571.5C 720.461,1578.36 713.628,1581.69 705,1581.5C 703.274,1580.42 701.441,1580.26 699.5,1581C 697.679,1585.49 694.513,1588.65 690,1590.5C 688.202,1589.5 686.368,1589 684.5,1589C 682.615,1591.94 681.115,1595.11 680,1598.5C 677.957,1600.21 676.29,1602.21 675,1604.5C 670.429,1606.73 666.096,1609.39 662,1612.5C 661.254,1615.79 662.42,1618.29 665.5,1620C 664.833,1621 664.167,1622 663.5,1623C 657.782,1624.68 653.449,1628.01 650.5,1633C 643.696,1634.14 640.029,1638.14 639.5,1645C 636.352,1646.08 633.352,1647.41 630.5,1649C 628.167,1649.67 625.833,1649.67 623.5,1649C 623.499,1647.6 623.165,1646.1 622.5,1644.5C 621.263,1643.72 620.263,1642.72 619.5,1641.5C 621.671,1636.13 623.838,1630.79 626,1625.5C 627.718,1624.15 629.552,1622.98 631.5,1622C 629.475,1620.81 629.141,1619.31 630.5,1617.5C 626.5,1615.83 626.5,1614.17 630.5,1612.5C 631.799,1613.09 632.632,1614.09 633,1615.5C 636.322,1612.01 639.822,1608.68 643.5,1605.5C 644.711,1604.28 644.711,1603.11 643.5,1602C 646.4,1599.6 648.733,1596.77 650.5,1593.5C 646.935,1592.84 646.102,1591.17 648,1588.5C 652.48,1584.89 655.48,1580.23 657,1574.5C 662.613,1568.89 668.279,1563.22 674,1557.5C 678.547,1547.94 684.547,1539.27 692,1531.5C 696.068,1525.09 699.735,1518.42 703,1511.5C 703.667,1510.5 703.667,1509.5 703,1508.5C 698.524,1505.34 694.191,1502.01 690,1498.5C 690.288,1495.41 689.788,1492.24 688.5,1489C 688.86,1487.35 689.193,1485.68 689.5,1484C 687.815,1480.13 686.482,1476.46 685.5,1473C 687.83,1470.83 690.497,1469.17 693.5,1468C 691.993,1467.16 691.493,1466 692,1464.5C 697.139,1459.89 702.972,1456.39 709.5,1454C 712.174,1450.29 714.174,1446.63 715.5,1443C 719.132,1441.52 722.466,1439.52 725.5,1437C 728.471,1436.21 731.471,1435.54 734.5,1435C 734.264,1433.55 734.264,1432.05 734.5,1430.5 Z"/></g>
<g><path style="opacity:1" fill="#25a82a" d="M 1290.5,1438.5 C 1301.07,1442.62 1311.73,1446.45 1322.5,1450C 1323.17,1451 1323.83,1452 1324.5,1453C 1330.2,1454.55 1334.7,1457.72 1338,1462.5C 1338.61,1464.24 1337.95,1465.24 1336,1465.5C 1324.53,1461.35 1314.03,1455.52 1304.5,1448C 1299.34,1445.59 1294.34,1442.92 1289.5,1440C 1290.06,1439.62 1290.39,1439.12 1290.5,1438.5 Z"/></g>
<g><path style="opacity:1" fill="#25a82a" d="M 1356.5,1441.5 C 1361.34,1442.93 1365.67,1445.43 1369.5,1449C 1368.83,1449.67 1368.17,1450.33 1367.5,1451C 1367.47,1453.26 1367.8,1455.59 1368.5,1458C 1368.05,1459.62 1367.05,1460.79 1365.5,1461.5C 1363.39,1460.05 1361.06,1459.05 1358.5,1458.5C 1357.52,1458.98 1356.69,1459.64 1356,1460.5C 1349.52,1457.83 1343.69,1454 1338.5,1449C 1340.61,1447.56 1342.78,1447.72 1345,1449.5C 1348.08,1447.84 1351.25,1447.34 1354.5,1448C 1355.52,1447.48 1356.18,1446.65 1356.5,1445.5C 1355.57,1444.02 1355.57,1442.69 1356.5,1441.5 Z"/></g>
<g><path style="opacity:1" fill="#25a82a" d="M 1378.5,1448.5 C 1380.76,1449.24 1380.93,1450.24 1379,1451.5C 1377.27,1450.65 1377.1,1449.65 1378.5,1448.5 Z"/></g>
<g><path style="opacity:1" fill="#25a82a" d="M 1399.5,1448.5 C 1402.67,1448.95 1403.01,1449.95 1400.5,1451.5C 1398.48,1450.87 1398.15,1449.87 1399.5,1448.5 Z"/></g>
<g><path style="opacity:1" fill="#25a82a" d="M 1376.5,1452.5 C 1378.37,1453.01 1380.2,1453.68 1382,1454.5C 1383.16,1453.81 1384.33,1453.65 1385.5,1454C 1386.83,1454.67 1386.83,1455.33 1385.5,1456C 1387.79,1457.29 1389.79,1458.96 1391.5,1461C 1390.97,1461.69 1390.31,1462.19 1389.5,1462.5C 1387.23,1461.56 1385.23,1460.23 1383.5,1458.5C 1383.17,1458.67 1382.83,1458.83 1382.5,1459C 1385.34,1460.44 1385.84,1462.27 1384,1464.5C 1381.96,1462.13 1379.63,1460.13 1377,1458.5C 1376.38,1457.55 1376.55,1456.72 1377.5,1456C 1375.63,1455.05 1375.29,1453.88 1376.5,1452.5 Z"/></g>
<g><path style="opacity:1" fill="#25a82a" d="M 1415.5,1452.5 C 1419.6,1451.72 1422.93,1452.88 1425.5,1456C 1424.66,1457.67 1425.16,1457.83 1427,1456.5C 1428.19,1457.43 1429.53,1458.1 1431,1458.5C 1433.33,1457.17 1435.67,1455.83 1438,1454.5C 1451.49,1457.1 1464.66,1460.6 1477.5,1465C 1478.17,1466 1478.83,1467 1479.5,1468C 1484.42,1470.63 1489.42,1472.96 1494.5,1475C 1492.73,1476.49 1490.73,1476.82 1488.5,1476C 1482.54,1473.51 1476.54,1471.34 1470.5,1469.5C 1468.72,1470.31 1468.06,1471.48 1468.5,1473C 1466.17,1473.67 1463.83,1473.67 1461.5,1473C 1455.25,1470.54 1449.25,1467.54 1443.5,1464C 1438.3,1462.99 1433.13,1461.83 1428,1460.5C 1425.97,1461.44 1424.14,1460.94 1422.5,1459C 1422.96,1458.59 1423.29,1458.09 1423.5,1457.5C 1420.79,1456.77 1418.12,1455.94 1415.5,1455C 1414.4,1454.23 1414.4,1453.4 1415.5,1452.5 Z"/></g>
<g><path style="opacity:1" fill="#25a82a" d="M 1489.5,1461.5 C 1492.18,1463.38 1491.84,1464.88 1488.5,1466C 1485.95,1466.85 1483.61,1466.52 1481.5,1465C 1484.41,1464.15 1487.08,1462.98 1489.5,1461.5 Z"/></g>
<g><path style="opacity:1" fill="#25a82a" d="M 1112.5,1463.5 C 1113.5,1463.41 1114.33,1463.75 1115,1464.5C 1115.79,1466.59 1116.96,1468.42 1118.5,1470C 1118,1470.5 1117.5,1471 1117,1471.5C 1116.34,1480.31 1114.51,1488.81 1111.5,1497C 1104.28,1499.64 1099.78,1497.14 1098,1489.5C 1097.33,1488.5 1097.33,1487.5 1098,1486.5C 1101.18,1483.15 1101.02,1479.81 1097.5,1476.5C 1098.04,1475.25 1098.71,1474.09 1099.5,1473C 1105.69,1472.25 1110.02,1469.08 1112.5,1463.5 Z"/></g>
<g><path style="opacity:1" fill="#25a82a" d="M 1341.5,1465.5 C 1345.75,1465.6 1349.92,1466.27 1354,1467.5C 1358.6,1466.29 1362.76,1467.12 1366.5,1470C 1365.23,1471.05 1363.73,1471.55 1362,1471.5C 1355.05,1470.99 1348.21,1469.82 1341.5,1468C 1340.4,1467.23 1340.4,1466.4 1341.5,1465.5 Z"/></g>
<g><path style="opacity:1" fill="#25a82a" d="M 1393.5,1470.5 C 1395.76,1471.24 1395.93,1472.24 1394,1473.5C 1392.27,1472.65 1392.1,1471.65 1393.5,1470.5 Z"/></g>
<g><path style="opacity:1" fill="#25a82a" d="M 1409.5,1471.5 C 1411.76,1472.24 1411.93,1473.24 1410,1474.5C 1408.27,1473.65 1408.1,1472.65 1409.5,1471.5 Z"/></g>
<g><path style="opacity:1" fill="#25a82a" d="M 1474.5,1478.5 C 1478.15,1479.67 1481.15,1481.83 1483.5,1485C 1486.5,1486 1489.5,1487 1492.5,1488C 1499.67,1495.59 1508.34,1500.59 1518.5,1503C 1522.41,1506.27 1526.74,1508.6 1531.5,1510C 1536.98,1513.24 1542.64,1516.24 1548.5,1519C 1551.59,1522.76 1555.25,1525.76 1559.5,1528C 1563.29,1532.92 1566.29,1538.26 1568.5,1544C 1568.19,1550.21 1570.19,1555.71 1574.5,1560.5C 1572.88,1563.29 1570.71,1563.95 1568,1562.5C 1567.32,1564.51 1565.99,1565.85 1564,1566.5C 1561.33,1565.17 1558.67,1563.83 1556,1562.5C 1555.97,1564.01 1554.81,1565.01 1552.5,1565.5C 1546.54,1564.57 1540.87,1562.73 1535.5,1560C 1530.11,1555.22 1524.28,1551.05 1518,1547.5C 1517.67,1547.83 1517.33,1548.17 1517,1548.5C 1515.83,1547.33 1514.67,1546.17 1513.5,1545C 1513.83,1544.67 1514.17,1544.33 1514.5,1544C 1510.85,1540.7 1509.52,1541.53 1510.5,1546.5C 1510.17,1547.5 1509.5,1548.17 1508.5,1548.5C 1495.36,1537.39 1480.7,1534.89 1464.5,1541C 1463.27,1541.78 1462.27,1542.78 1461.5,1544C 1462.42,1545.15 1462.42,1546.15 1461.5,1547C 1454.64,1546.23 1448.97,1548.23 1444.5,1553C 1440.32,1553.61 1436.32,1552.94 1432.5,1551C 1431.17,1550 1431.17,1549 1432.5,1548C 1425.44,1539.94 1417.44,1532.94 1408.5,1527C 1407.11,1525.83 1406.27,1524.33 1406,1522.5C 1401.91,1520.25 1399.08,1516.91 1397.5,1512.5C 1398.67,1509.93 1400.33,1507.76 1402.5,1506C 1406.74,1504.63 1410.9,1503.13 1415,1501.5C 1416.88,1499.21 1416.71,1497.21 1414.5,1495.5C 1414.83,1494.5 1415.5,1493.83 1416.5,1493.5C 1417.45,1494.33 1418.45,1494.49 1419.5,1494C 1419.38,1492.73 1419.05,1491.4 1418.5,1490C 1422.13,1484.67 1426.29,1484.17 1431,1488.5C 1432.07,1487.81 1433.23,1487.31 1434.5,1487C 1434.38,1485.73 1434.05,1484.4 1433.5,1483C 1435.39,1480.81 1437.56,1480.31 1440,1481.5C 1440.8,1480.2 1441.97,1479.53 1443.5,1479.5C 1447.47,1480.2 1451.47,1480.7 1455.5,1481C 1455.43,1483.18 1455.76,1485.18 1456.5,1487C 1464.72,1490.02 1473.05,1492.52 1481.5,1494.5C 1481.51,1492.69 1481.01,1491.02 1480,1489.5C 1477.56,1486.69 1475.4,1483.69 1473.5,1480.5C 1473.86,1479.82 1474.2,1479.15 1474.5,1478.5 Z"/></g>
<g><path style="opacity:1" fill="#25a82a" d="M 1657.5,1549.5 C 1660.14,1550.49 1662.48,1551.99 1664.5,1554C 1664,1554.5 1663.5,1555 1663,1555.5C 1660.57,1554.37 1658.41,1552.87 1656.5,1551C 1657.06,1550.62 1657.39,1550.12 1657.5,1549.5 Z"/></g>
<g><path style="opacity:1" fill="#25a82a" d="M 1568.5,1572.5 C 1572.22,1574.49 1576.05,1574.82 1580,1573.5C 1583.29,1576.11 1585.79,1579.28 1587.5,1583C 1586.84,1584.49 1585.84,1585.65 1584.5,1586.5C 1578.13,1583.3 1572.46,1579.13 1567.5,1574C 1568.06,1573.62 1568.39,1573.12 1568.5,1572.5 Z"/></g>
<g><path style="opacity:1" fill="#25a82a" d="M 1678.5,1572.5 C 1682.25,1573.65 1685.75,1575.31 1689,1577.5C 1688.79,1580.65 1688.62,1583.81 1688.5,1587C 1689.04,1589.24 1690.2,1591.07 1692,1592.5C 1692.74,1594.44 1692.58,1596.27 1691.5,1598C 1687.05,1598.29 1682.72,1597.62 1678.5,1596C 1677.26,1594.85 1676.26,1593.51 1675.5,1592C 1676.81,1588.53 1678.48,1584.86 1680.5,1581C 1679.64,1578.77 1678.64,1576.61 1677.5,1574.5C 1677.86,1573.82 1678.2,1573.15 1678.5,1572.5 Z"/></g>
<g><path style="opacity:1" fill="#25a82a" d="M 641.5,1596.5 C 643.76,1597.24 643.927,1598.24 642,1599.5C 640.272,1598.65 640.105,1597.65 641.5,1596.5 Z"/></g>
<g><path style="opacity:1" fill="#25a82a" d="M 633.5,1648.5 C 634.822,1648.33 635.989,1648.66 637,1649.5C 638.016,1654.54 640.516,1658.7 644.5,1662C 644.167,1662.33 643.833,1662.67 643.5,1663C 639.37,1661.5 635.203,1660.67 631,1660.5C 628.613,1657.44 629.113,1654.94 632.5,1653C 630.14,1651.13 630.473,1649.63 633.5,1648.5 Z"/></g>
<g><path style="opacity:1" fill="#25a82a" d="M 623.5,1651.5 C 625.852,1652.54 626.019,1653.88 624,1655.5C 622.232,1654.32 622.065,1652.98 623.5,1651.5 Z"/></g>
</svg>
